<mxfile host="app.diagrams.net" modified="2022-06-02T06:48:40.300Z" agent="5.0 (Macintosh; Intel Mac OS X 10_15_7) AppleWebKit/537.36 (KHTML, like Gecko) Chrome/102.0.5005.61 Safari/537.36" etag="vS7bcxI5B-wwDtEVone3" version="18.2.0" type="github">
  <diagram id="UzpYwphYYg4_X9bOfqpp" name="Page-1">
    <mxGraphModel dx="1206" dy="758" grid="0" gridSize="10" guides="1" tooltips="1" connect="1" arrows="1" fold="1" page="1" pageScale="1" pageWidth="827" pageHeight="1169" math="0" shadow="0">
      <root>
        <mxCell id="0" />
        <mxCell id="1" parent="0" />
        <mxCell id="QBQiVsUSkPuhTxbB2Ofl-24" value="" style="rounded=1;whiteSpace=wrap;html=1;fontSize=14;fontColor=#000000;strokeWidth=2;fillColor=none;dashed=1;dashPattern=1 1;" vertex="1" parent="1">
          <mxGeometry x="442" y="79" width="343" height="174" as="geometry" />
        </mxCell>
        <mxCell id="QBQiVsUSkPuhTxbB2Ofl-1" value="" style="shape=image;imageAspect=0;aspect=fixed;verticalLabelPosition=bottom;verticalAlign=top;image=data:image/png,iVBORw0KGgoAAAANSUhEUgAAAIAAAACACAYAAADDPmHLAAAABGdBTUEAALGPC/xhBQAAAAFzUkdCAK7OHOkAAAAgY0hSTQAAeiYAAICEAAD6AAAAgOgAAHUwAADqYAAAOpgAABdwnLpRPAAAAAZiS0dEAP8A/wD/oL2nkwAAAAlwSFlzAADsOAAA7DgBcSvKOAAAEK1JREFUeNrtnXtwVFWexz+/e7s7nYQQQgCRlyAiiIIvjGlg1NURd1DcHWt1lBlLR0ZHgwrxgVNrrdZSM1P4QhASZgbflq476Pga1NURFYHwUHwgiEIw8hIiJoS8+3HP/nGSQDkB6ee9fbs/VFGVqj63f+ee7z2/3++c3+0DWbJkyZIlS5YsWbJkyZIlgxC7DbADoyIAIEroBYSVmI2iLFTZKrtNSzkZJQCpCGD6hUi7KgKuAK4DmoAFwNtKaDYUWGVVdpuauntitwEpYe5ZiN8DSuUgcgEwCygFcjo+0QS8B8wB1gBhlSEicL0ApDIAgoFiDHrgLwYKD/PxWuAFYJ4otipBuV0IrhWALAqgRCGWDAKmA78CBh5Fny2gGvgT8HS+UbuvxeqLVbba7i4l5z7ZbUDCO1RRCoYBSvVE+/lbgdGAGeWlgsBHwAPAmyKq1bIMmO6uQNFVApDKAIAPOAe4C5gI+OO8bCPwD2AOwnqUu+IDVwhAKksBDJCTgDuBS4GiBH/NHuB54BGU1IBSanr6CyGtBWBUBhAEC3UscCNwDTAkif2ygK+ACuA50+OtC4dCkMZCSEsBGJUBLG18AfBzYCYwBvCkyIR2YC1wP/APQbVZmFC20u5bEzVpJwCpDIBSXkTGo/38uUCeTeY0AG+ihfApEEm3+CBtBHCInx8B3A5cBhTbbReggN3Ac8BChewQVNqsHzhfABXjQRmIEekHXI9evh0KGHab9gMiwGZgPvBXUaEGZeSgbnK2W3CuAConYEgEpSQfmALcBpwGeO027UdoA6qA+9DLy+0KC8rW2G1XtzhSAB35vAcoQfv5C4B8u+2Kkv3A34EHQD4HZTnRLThKAFIRAJQgMhwd2V8O9LPbrjhQwE7gaWCRUuwSAScJwRkCqBwPnkIkvL8PcC1wAzAc5/n5WIkAG4GHgRdBGkE5Qgj2CmBhADEBi1yEnwF3AGeil3PdSCvwAXA/ig8wCKrPgEX2CcE2AXT4eRM94HcBF6IXdjKBOuAV4EF05mBbfJByAUhFAAUiwnHADOBKoL8tvbcXBXwDPA4sVobsESv1biFlApCKUjymSdiyegNXo9fuT8Q9fj5WwsBnwEPAqyBNqYwPki+AyhIED6D8wE/Ru3Vnc7AcK4umGXgfvX5QBYRSIYKkCkAqS0GJiTAWXY71Mw5fjpVFsw/4GzBXhC1KJTc+SIoApDKAQokgg4CbgV8CA5L1fS5EAduAvwBPeA31XdiSpFQrJ3RAdAGmgFKFwFXowR9F9OVYWTQh4GN0WdrrSqTFsCys6YmrT0yYADrSuhz09uxdwHjiL8fKomkClgFzUKxDEleWFrcAOgbeAE5GB3hTgF523SmXsxdYAswT2KaIv2w9ZgFIZakuxsIcANyELscaFM81u0OhtEc8xGJxcCihlEIbLCBJsdQCtqLL1p9CqEPFvr8Qm30VpYguvT4HmIvepk2on1fKwmt6KfDmkevxY4pByArTHGqlKdSKpSIdN9gZYlDKwu/JoXdOT/yeHNojQerbG2kJtSIiJCH+DQHL0XHWZlFgxVCbGFMNnRwM9P4bvZSbuBuJwm/6OHfAGVwzcjIn9hpMoa8HXsOkLRLi+7YGPq+r5q9b32Ft7SYag82I2LeWpFD4DR+ThpzNtJMuZVSvIeR5/LRFglQf2MVTm5fyas0HNIfaOoSQMLzobfJ7QV2nhNZYLhKTRR1+fyh64WJIIm9m75ye/L7kt0w98SIKfYcvATgQbGZN7Sbu//gZ3tu1nrCKpHw2UCh6evOZXXI9vx51CT27sbcl3MaS6mXMqlpIbUt9okUAUAOcB3wTixuIadqWiwcD9EaXZ/VMRC8U4Dd93BeYzg0n/xu5niMvFOaYPob3HMjk4wKYYvDRd18SssIpFYFHTP5r3HXMGPsL8jzdJzxew8PY4uEU5vRg2a6PkmFjE/AUUM/SnVE3ds46vLI4f+A4po6YhClHr8s+/l7cM+467hl3Hblmjg4aU2GushhbfALXjpyM1ziyJzXEYOqISYzvPwaUlRL7jhbHCMBn+rhm1GQKfT2ibptj+rh1zBVMO+lSzFTFA2Jw5YgLOTa/z1F9vMCbxxXDL8BrOqvUwRECUCgKfHmcWDg45mvkenK496xpTBn6k45ULLnkGF5OLhoWVZsz+o6kwJuXslnqaHCEAFDgM7w/6vd/jD7+Qh4afwul/U9BJXmqNUTIifJp9hle7d6cM/4OEUAX8QdHx/ccyPyJ5YzoNTjpInADDhNAYijpN5oHx99K39zeSXUHic/oYibmTrpSAAAXHzeBe8+aRr7X7yif6zRcKwBTDKadNIUbT/45HjGTJAHnTAGx4loBgF5YuvvMX3PZ8efhqMjLQbhaAABFOQXcH7iZnxx7asKDwvR//jNAAADHFfRn3oRyRhUNzWYGPyAjBAB6EWbuhBn0z+uTkoWiFBJXZzJGAAAXDS5ldsn1FPjyEiSC9HcCGSUAQ4RrRk7mljGX4zU8MaeHupVTSlHivCd2GxAPquNfNPhML7NOv5orTrggvgFMSpFP6klrAWxr2M2mupqo2xX68plTWsZ5A86MOSh0wdgDaS6AHc213LZyPjWN30bddlCPfsybOJNTiodndGaQ1gIwgBXffsKsqgrq2g9E3X5s8QnMnTCTgfn9YhKBG6KAtBZAZ+n136rfZc76p2mLBKO+wk8HjuMPpTdS6OuRzulhZm8GRZRFxYYXeWLz37GifJJFhKkjJlF+6lX4TG/GbRy5QgCI0BJu4961i1n6TfQ/5+41PNx22lVMHTEJI4pp3Q1icYcA0E/yd6313L7qEdbVboq6fYE3jz+W3sSFg0syKih0jQAARAy27N/OjBXz2HZgd9Ttj80rZu6EGZzW58QfFUH6P/saVwkAtAhW79nArKqFfN/WEHX70UXDmDexnCEF/Y8sgs5XANMc1wkAABFe+fp9/vDRk7SG26Nufs6A05hTOp2inJ7dZgY6SnBDBOBWAQBhZfGnjS/x6BevEok2M0C4fPj5zDrjavwe3xGGOv0l4FoBCEJruJ3Z6x7jtZoVUbf3GCa3jrmca0ZeHFVmkG64VgCgM4N9bfu5Y9UjrN67Mer2eR4/s0uu5+LjJqTzItERcbUAQAeF1Q07mbniYbY2RP/yZL/cIh6aMIOSY0b/U1DoBkm4XgCgRbBm70buXLWA71r3R91+ROEg5k8sZ3ih+142yQgBgHYHr9WsYPaHj9MSbou6fekxp/Dg+Fvom1t0iAjSfw7IGAEARLB49ItX+PPGlwmrSNTtpwyd2PGySa5LksAME4AgtIWD/P6jJ3jl6+VRtzfF4DcnXcqNJ1+mXzZxgQZSdc6eYxAR6toauGPVAvrnFTOh/9io2ueYPu4+81r2te23uysJIaNmgE5EDGoO7Gbmiof5cv/2qNsX5RQwp7SMMcXD7e5K3GSkAECL4MPazdy+cj57W+qibt8/r5h+uYk+njj1ZKwAQLuDN7ZXcc+6xTSFWuw2xxYyWgAAFoqnNi9l4YYXCFlhu81JORkvAEFoj4SY8/EzLKleZrc5KSfjBQDaFTS0N/G7qgre3bXebnNSSlYAHYgIO5r2Ur7yYTbWbbPbnJSRFcAhiBh8um8L5Svns7t5n93mHC1x1SZlBfADRAze2bmO/1yziIZgs93mJJ2sALrBQvE/X73FvE+fJxgJ2W1OUskKoBsEIajCPPTpczy75S3XbPx0R1YAh0EQGoMt3L1mEW/vWGu3OUnDYQKI7kmzSG5xhojwbfM+ylfO55N9WxLQO+fNJM4QgEDICtEaju7lzh2Nezt+fz+JponBprptlK+cx/amvXFdqzHUQrsVdNSPCzhCAIJwINgSVc1eRFm8u3s9oRQEaSIG7+9ez++qKqhvb4z5Om9uX01jsMVRr5U7QgAAwUiQJ79cetSp19aGnSzf/XHK7FMIL1QvY/aHj3MghvTwm8Y9vLztfcfVFDpGAHTk3898+QaRHynX2h9sYvaHj7HtwO6UHRglQEhFqPj8BW5a/gDVDbuO2qPvb2/i3nWL2VT/ta0HXHVHPGcG9QKuJUGHQQsQVhGq9mzAUorRvYf90zk8llJ83bibu6oqWLL1HSJYKZ1OBcFSFhvrqnl75zrCVoRB+X3J8/gxuhnYsBXhi/oa7qxawJKty5Jl737gCaAhljOD4jk1rAh4HShNZG+UUvhML6f2GcHkIQHOHXA6Pbx51LbW88b2Kt7esZbqhh1YnYcz2oRSFj7Ty7CCAYztcwJnH3MKY3oPp4fXT3O4nY1121i15zPW7t3EjqY9qOTZuhS4EmiK5dSw2AUggOISYD4wLNZrHQ6lLAwxyPX48Roe2iNB2sJtetgdNI0qZYFSmIYHn+nFNEwilkUwEiRihUGMZBwVBzpnXg/cAGq9UgZMj/7HMWI/OnZRx5nBilHALWgV9kp8Lzs9rZNi58PZ2vl/0m3dA/wZeNwQtd1SkuKjYw+9wMFTwwPALOD8jr+zJJ4m4GXgYeAziP8U8YQIVSpKQPxAqBcwGX2K+BgSfJ5wBhMCVgNzgPeUSIsZiRC5eU3cF07oTCWVAZSIiFIDgauBMmBgor8ng1DAFvQB3S/mmbKvNaKw4nzqDyUpA9PhFkxgNDAT+A8SdMRsBlELPAY8KlCjwIp3uu+OpD6ZHULwAxPR8cG5gLOOznQezej0+kHgYyCUjIHvJOlTs1SWIspAieoNXIKOD0bjpFVIZxAGPkT7+XdAmkDFHN0fLSnzzVIRQCklYsgQ9Arib4FjU/X9DkYB24B5wBJlsFcskj7wnaQ8OJPKAChMhLFAOfDvQEGq7XAI3wNPAn8BtpIkP38k7InOK89DaAMkDzgHuAuYAHhtsSf1tAJvAQ8A64Bgqge+E1vTM6kIQG8f1AeL0TPB7cBI3BsfRNCB3X3A/2FJI6aFumm1bQY5Ij/X2YIIqKHAb4BpwDF225VAFLAdvW/yvIrwrRgKNd2+ge/EEQLoMkYLwQPqNOAOdNaQb7ddcVIPPAtUAl8BEbum++5wlAAAWDARwxNGKckH/gUdH5SSfr9m0gYsA+5HsRqh3UkD34nzBNBJxXiwDMSM9EWvJJYDJzjaZo0FbED7+dcR1YAyUGXRb9WmAqffzM7VRAM4Hr12cC3Qx267DsNOYCHwrFLmLhFLOXXgO3G8ALoMrQyAUl5EzkSvJv4rkGe3XR00AP+LHvxNOMzPH4m0EQCAWRkgoo0uAC5AxwfjsC8+CALL0dP9ClBtCj+UvWf3rTpq0koAnRiVAQSwdKr4C2AGSShLOwIW8AV6IedVEU+9skKOSOuiJS0F0GX8wfhgBLr24FdA7yR/7bfAIuApkB2gVLpM992R1gLo6oQWgg8oQccHk9Db0ImkEXgJvWmzgQSUYzkBVwgAukQAuvDkInT9wenEX5YWAlaht2mXK6TFQ5hwmTveGHaNALo6VBmgozJ3ADAVuBkYEkNfLfTK3UPAS6e+WvX9Z1NKsdLQzx8J1wmgq2MH44NYytb3AouBxwVVo0CpMncNfCeuFUBXBw+WrZei08Yjla03A6+hizA/IcnlWE7A9QIAkIpSvcdEpBfdl62H0Pvyc4BlCppNIOLywYcMEUBXZysCKEREusrWf4ke/MXAC6ZFrWWQ0LJrp5NRAujq9MGy9WJAgXwPKuXlWFmyZMmSJUuWLFmyZMmSJUuK+X+nIIYge2RpRQAAACV0RVh0ZGF0ZTpjcmVhdGUAMjAyMC0wMS0xMFQxNjozNjoyMSswMDowMBGcCc0AAAAldEVYdGRhdGU6bW9kaWZ5ADIwMjAtMDEtMTBUMTY6MzY6MjErMDA6MDBgwbFxAAAARnRFWHRzb2Z0d2FyZQBJbWFnZU1hZ2ljayA2LjcuOC05IDIwMTktMDItMDEgUTE2IGh0dHA6Ly93d3cuaW1hZ2VtYWdpY2sub3JnQXviyAAAABh0RVh0VGh1bWI6OkRvY3VtZW50OjpQYWdlcwAxp/+7LwAAABh0RVh0VGh1bWI6OkltYWdlOjpoZWlnaHQANTEywNBQUQAAABd0RVh0VGh1bWI6OkltYWdlOjpXaWR0aAA1MTIcfAPcAAAAGXRFWHRUaHVtYjo6TWltZXR5cGUAaW1hZ2UvcG5nP7JWTgAAABd0RVh0VGh1bWI6Ok1UaW1lADE1Nzg2NzQxODFXr3wrAAAAEXRFWHRUaHVtYjo6U2l6ZQAxNUtCQuy3oDcAAABLdEVYdFRodW1iOjpVUkkAZmlsZTovLy4vdXBsb2Fkcy81Ni84YnZzM2FWLzIxMDcvZmlsZV90eXBlX25naW54X2ljb25fMTMwMzA1LnBuZ0nGhFMAAAAASUVORK5CYII=;" vertex="1" parent="1">
          <mxGeometry x="224" y="237" width="83" height="83" as="geometry" />
        </mxCell>
        <mxCell id="QBQiVsUSkPuhTxbB2Ofl-3" value="" style="rounded=1;whiteSpace=wrap;html=1;fillColor=none;strokeWidth=2;" vertex="1" parent="1">
          <mxGeometry x="463" y="101" width="299" height="130" as="geometry" />
        </mxCell>
        <mxCell id="QBQiVsUSkPuhTxbB2Ofl-4" value="" style="rounded=1;whiteSpace=wrap;html=1;fillColor=none;strokeWidth=2;" vertex="1" parent="1">
          <mxGeometry x="461" y="330" width="301" height="130" as="geometry" />
        </mxCell>
        <mxCell id="QBQiVsUSkPuhTxbB2Ofl-5" value="" style="curved=1;endArrow=classic;html=1;rounded=0;strokeWidth=2;exitX=0.5;exitY=0;exitDx=0;exitDy=0;entryX=0;entryY=0.5;entryDx=0;entryDy=0;" edge="1" parent="1" source="QBQiVsUSkPuhTxbB2Ofl-1" target="QBQiVsUSkPuhTxbB2Ofl-3">
          <mxGeometry width="50" height="50" relative="1" as="geometry">
            <mxPoint x="403" y="342" as="sourcePoint" />
            <mxPoint x="453" y="292" as="targetPoint" />
            <Array as="points">
              <mxPoint x="338" y="153" />
            </Array>
          </mxGeometry>
        </mxCell>
        <mxCell id="QBQiVsUSkPuhTxbB2Ofl-6" value="" style="curved=1;endArrow=classic;html=1;rounded=0;strokeWidth=2;exitX=0.5;exitY=1;exitDx=0;exitDy=0;entryX=-0.008;entryY=0.608;entryDx=0;entryDy=0;entryPerimeter=0;" edge="1" parent="1" source="QBQiVsUSkPuhTxbB2Ofl-1" target="QBQiVsUSkPuhTxbB2Ofl-4">
          <mxGeometry width="50" height="50" relative="1" as="geometry">
            <mxPoint x="340.0000000000002" y="406" as="sourcePoint" />
            <mxPoint x="434.5" y="341" as="targetPoint" />
            <Array as="points">
              <mxPoint x="324" y="402" />
            </Array>
          </mxGeometry>
        </mxCell>
        <mxCell id="QBQiVsUSkPuhTxbB2Ofl-8" value="&lt;font style=&quot;font-size: 16px;&quot;&gt;&lt;b&gt;Proxy[&lt;font color=&quot;#ff0000&quot;&gt;:80&lt;/font&gt;]&lt;/b&gt;&lt;/font&gt;" style="text;html=1;strokeColor=none;fillColor=none;align=center;verticalAlign=middle;whiteSpace=wrap;rounded=0;" vertex="1" parent="1">
          <mxGeometry x="311" y="263.5" width="60" height="30" as="geometry" />
        </mxCell>
        <mxCell id="QBQiVsUSkPuhTxbB2Ofl-9" value="&lt;b&gt;location &lt;font style=&quot;font-size: 20px;&quot;&gt;/&lt;/font&gt;&lt;/b&gt;" style="text;html=1;strokeColor=none;fillColor=none;align=center;verticalAlign=middle;whiteSpace=wrap;rounded=0;fontSize=16;" vertex="1" parent="1">
          <mxGeometry x="246.5" y="137" width="189" height="30" as="geometry" />
        </mxCell>
        <mxCell id="QBQiVsUSkPuhTxbB2Ofl-10" value="&lt;b&gt;location &lt;font style=&quot;font-size: 20px;&quot;&gt;/api&lt;/font&gt;&lt;/b&gt;" style="text;html=1;strokeColor=none;fillColor=none;align=center;verticalAlign=middle;whiteSpace=wrap;rounded=0;fontSize=16;" vertex="1" parent="1">
          <mxGeometry x="246.5" y="397" width="189" height="30" as="geometry" />
        </mxCell>
        <mxCell id="QBQiVsUSkPuhTxbB2Ofl-11" value="&lt;b&gt;Vue.js [&lt;font color=&quot;#ff0000&quot;&gt;:3000&lt;/font&gt;]&lt;/b&gt;" style="text;html=1;strokeColor=none;fillColor=none;align=center;verticalAlign=middle;whiteSpace=wrap;rounded=0;fontSize=16;" vertex="1" parent="1">
          <mxGeometry x="469" y="98" width="123" height="30" as="geometry" />
        </mxCell>
        <mxCell id="QBQiVsUSkPuhTxbB2Ofl-12" value="" style="rounded=1;whiteSpace=wrap;html=1;fillColor=none;strokeWidth=2;" vertex="1" parent="1">
          <mxGeometry x="463" y="531" width="301" height="130" as="geometry" />
        </mxCell>
        <mxCell id="QBQiVsUSkPuhTxbB2Ofl-13" value="&lt;b&gt;Node [&lt;font color=&quot;#ff0000&quot;&gt;:5000&lt;/font&gt;]&lt;/b&gt;" style="text;html=1;strokeColor=none;fillColor=none;align=center;verticalAlign=middle;whiteSpace=wrap;rounded=0;fontSize=16;" vertex="1" parent="1">
          <mxGeometry x="469" y="330" width="124" height="30" as="geometry" />
        </mxCell>
        <mxCell id="QBQiVsUSkPuhTxbB2Ofl-14" value="&lt;b&gt;Mysql[&lt;font color=&quot;#ff0000&quot;&gt;:3306&lt;/font&gt;]&lt;/b&gt;" style="text;html=1;strokeColor=none;fillColor=none;align=center;verticalAlign=middle;whiteSpace=wrap;rounded=0;fontSize=16;" vertex="1" parent="1">
          <mxGeometry x="469" y="531" width="129" height="30" as="geometry" />
        </mxCell>
        <mxCell id="QBQiVsUSkPuhTxbB2Ofl-15" value="" style="endArrow=none;dashed=1;html=1;dashPattern=1 3;strokeWidth=2;rounded=0;fontSize=20;entryX=0.532;entryY=1.013;entryDx=0;entryDy=0;entryPerimeter=0;exitX=0.526;exitY=0.006;exitDx=0;exitDy=0;exitPerimeter=0;" edge="1" parent="1" source="QBQiVsUSkPuhTxbB2Ofl-12" target="QBQiVsUSkPuhTxbB2Ofl-4">
          <mxGeometry width="50" height="50" relative="1" as="geometry">
            <mxPoint x="369" y="458" as="sourcePoint" />
            <mxPoint x="419" y="408" as="targetPoint" />
          </mxGeometry>
        </mxCell>
        <mxCell id="QBQiVsUSkPuhTxbB2Ofl-16" value="" style="shape=image;imageAspect=0;aspect=fixed;verticalLabelPosition=bottom;verticalAlign=top;image=data:image/png,iVBORw0KGgoAAAANSUhEUgAAAIAAAACACAYAAADDPmHLAAAABGdBTUEAALGPC/xhBQAAAAFzUkdCAK7OHOkAAAAgY0hSTQAAeiYAAICEAAD6AAAAgOgAAHUwAADqYAAAOpgAABdwnLpRPAAAAAZiS0dEAP8A/wD/oL2nkwAAAAlwSFlzAADsOAAA7DgBcSvKOAAAEK1JREFUeNrtnXtwVFWexz+/e7s7nYQQQgCRlyAiiIIvjGlg1NURd1DcHWt1lBlLR0ZHgwrxgVNrrdZSM1P4QhASZgbflq476Pga1NURFYHwUHwgiEIw8hIiJoS8+3HP/nGSQDkB6ee9fbs/VFGVqj63f+ee7z2/3++c3+0DWbJkyZIlS5YsWbJkyZIlgxC7DbADoyIAIEroBYSVmI2iLFTZKrtNSzkZJQCpCGD6hUi7KgKuAK4DmoAFwNtKaDYUWGVVdpuauntitwEpYe5ZiN8DSuUgcgEwCygFcjo+0QS8B8wB1gBhlSEicL0ApDIAgoFiDHrgLwYKD/PxWuAFYJ4otipBuV0IrhWALAqgRCGWDAKmA78CBh5Fny2gGvgT8HS+UbuvxeqLVbba7i4l5z7ZbUDCO1RRCoYBSvVE+/lbgdGAGeWlgsBHwAPAmyKq1bIMmO6uQNFVApDKAIAPOAe4C5gI+OO8bCPwD2AOwnqUu+IDVwhAKksBDJCTgDuBS4GiBH/NHuB54BGU1IBSanr6CyGtBWBUBhAEC3UscCNwDTAkif2ygK+ACuA50+OtC4dCkMZCSEsBGJUBLG18AfBzYCYwBvCkyIR2YC1wP/APQbVZmFC20u5bEzVpJwCpDIBSXkTGo/38uUCeTeY0AG+ihfApEEm3+CBtBHCInx8B3A5cBhTbbReggN3Ac8BChewQVNqsHzhfABXjQRmIEekHXI9evh0KGHab9gMiwGZgPvBXUaEGZeSgbnK2W3CuAConYEgEpSQfmALcBpwGeO027UdoA6qA+9DLy+0KC8rW2G1XtzhSAB35vAcoQfv5C4B8u+2Kkv3A34EHQD4HZTnRLThKAFIRAJQgMhwd2V8O9LPbrjhQwE7gaWCRUuwSAScJwRkCqBwPnkIkvL8PcC1wAzAc5/n5WIkAG4GHgRdBGkE5Qgj2CmBhADEBi1yEnwF3AGeil3PdSCvwAXA/ig8wCKrPgEX2CcE2AXT4eRM94HcBF6IXdjKBOuAV4EF05mBbfJByAUhFAAUiwnHADOBKoL8tvbcXBXwDPA4sVobsESv1biFlApCKUjymSdiyegNXo9fuT8Q9fj5WwsBnwEPAqyBNqYwPki+AyhIED6D8wE/Ru3Vnc7AcK4umGXgfvX5QBYRSIYKkCkAqS0GJiTAWXY71Mw5fjpVFsw/4GzBXhC1KJTc+SIoApDKAQokgg4CbgV8CA5L1fS5EAduAvwBPeA31XdiSpFQrJ3RAdAGmgFKFwFXowR9F9OVYWTQh4GN0WdrrSqTFsCys6YmrT0yYADrSuhz09uxdwHjiL8fKomkClgFzUKxDEleWFrcAOgbeAE5GB3hTgF523SmXsxdYAswT2KaIv2w9ZgFIZakuxsIcANyELscaFM81u0OhtEc8xGJxcCihlEIbLCBJsdQCtqLL1p9CqEPFvr8Qm30VpYguvT4HmIvepk2on1fKwmt6KfDmkevxY4pByArTHGqlKdSKpSIdN9gZYlDKwu/JoXdOT/yeHNojQerbG2kJtSIiJCH+DQHL0XHWZlFgxVCbGFMNnRwM9P4bvZSbuBuJwm/6OHfAGVwzcjIn9hpMoa8HXsOkLRLi+7YGPq+r5q9b32Ft7SYag82I2LeWpFD4DR+ThpzNtJMuZVSvIeR5/LRFglQf2MVTm5fyas0HNIfaOoSQMLzobfJ7QV2nhNZYLhKTRR1+fyh64WJIIm9m75ye/L7kt0w98SIKfYcvATgQbGZN7Sbu//gZ3tu1nrCKpHw2UCh6evOZXXI9vx51CT27sbcl3MaS6mXMqlpIbUt9okUAUAOcB3wTixuIadqWiwcD9EaXZ/VMRC8U4Dd93BeYzg0n/xu5niMvFOaYPob3HMjk4wKYYvDRd18SssIpFYFHTP5r3HXMGPsL8jzdJzxew8PY4uEU5vRg2a6PkmFjE/AUUM/SnVE3ds46vLI4f+A4po6YhClHr8s+/l7cM+467hl3Hblmjg4aU2GushhbfALXjpyM1ziyJzXEYOqISYzvPwaUlRL7jhbHCMBn+rhm1GQKfT2ibptj+rh1zBVMO+lSzFTFA2Jw5YgLOTa/z1F9vMCbxxXDL8BrOqvUwRECUCgKfHmcWDg45mvkenK496xpTBn6k45ULLnkGF5OLhoWVZsz+o6kwJuXslnqaHCEAFDgM7w/6vd/jD7+Qh4afwul/U9BJXmqNUTIifJp9hle7d6cM/4OEUAX8QdHx/ccyPyJ5YzoNTjpInADDhNAYijpN5oHx99K39zeSXUHic/oYibmTrpSAAAXHzeBe8+aRr7X7yif6zRcKwBTDKadNIUbT/45HjGTJAHnTAGx4loBgF5YuvvMX3PZ8efhqMjLQbhaAABFOQXcH7iZnxx7asKDwvR//jNAAADHFfRn3oRyRhUNzWYGPyAjBAB6EWbuhBn0z+uTkoWiFBJXZzJGAAAXDS5ldsn1FPjyEiSC9HcCGSUAQ4RrRk7mljGX4zU8MaeHupVTSlHivCd2GxAPquNfNPhML7NOv5orTrggvgFMSpFP6klrAWxr2M2mupqo2xX68plTWsZ5A86MOSh0wdgDaS6AHc213LZyPjWN30bddlCPfsybOJNTiodndGaQ1gIwgBXffsKsqgrq2g9E3X5s8QnMnTCTgfn9YhKBG6KAtBZAZ+n136rfZc76p2mLBKO+wk8HjuMPpTdS6OuRzulhZm8GRZRFxYYXeWLz37GifJJFhKkjJlF+6lX4TG/GbRy5QgCI0BJu4961i1n6TfQ/5+41PNx22lVMHTEJI4pp3Q1icYcA0E/yd6313L7qEdbVboq6fYE3jz+W3sSFg0syKih0jQAARAy27N/OjBXz2HZgd9Ttj80rZu6EGZzW58QfFUH6P/saVwkAtAhW79nArKqFfN/WEHX70UXDmDexnCEF/Y8sgs5XANMc1wkAABFe+fp9/vDRk7SG26Nufs6A05hTOp2inJ7dZgY6SnBDBOBWAQBhZfGnjS/x6BevEok2M0C4fPj5zDrjavwe3xGGOv0l4FoBCEJruJ3Z6x7jtZoVUbf3GCa3jrmca0ZeHFVmkG64VgCgM4N9bfu5Y9UjrN67Mer2eR4/s0uu5+LjJqTzItERcbUAQAeF1Q07mbniYbY2RP/yZL/cIh6aMIOSY0b/U1DoBkm4XgCgRbBm70buXLWA71r3R91+ROEg5k8sZ3ih+142yQgBgHYHr9WsYPaHj9MSbou6fekxp/Dg+Fvom1t0iAjSfw7IGAEARLB49ItX+PPGlwmrSNTtpwyd2PGySa5LksAME4AgtIWD/P6jJ3jl6+VRtzfF4DcnXcqNJ1+mXzZxgQZSdc6eYxAR6toauGPVAvrnFTOh/9io2ueYPu4+81r2te23uysJIaNmgE5EDGoO7Gbmiof5cv/2qNsX5RQwp7SMMcXD7e5K3GSkAECL4MPazdy+cj57W+qibt8/r5h+uYk+njj1ZKwAQLuDN7ZXcc+6xTSFWuw2xxYyWgAAFoqnNi9l4YYXCFlhu81JORkvAEFoj4SY8/EzLKleZrc5KSfjBQDaFTS0N/G7qgre3bXebnNSSlYAHYgIO5r2Ur7yYTbWbbPbnJSRFcAhiBh8um8L5Svns7t5n93mHC1x1SZlBfADRAze2bmO/1yziIZgs93mJJ2sALrBQvE/X73FvE+fJxgJ2W1OUskKoBsEIajCPPTpczy75S3XbPx0R1YAh0EQGoMt3L1mEW/vWGu3OUnDYQKI7kmzSG5xhojwbfM+ylfO55N9WxLQO+fNJM4QgEDICtEaju7lzh2Nezt+fz+JponBprptlK+cx/amvXFdqzHUQrsVdNSPCzhCAIJwINgSVc1eRFm8u3s9oRQEaSIG7+9ez++qKqhvb4z5Om9uX01jsMVRr5U7QgAAwUiQJ79cetSp19aGnSzf/XHK7FMIL1QvY/aHj3MghvTwm8Y9vLztfcfVFDpGAHTk3898+QaRHynX2h9sYvaHj7HtwO6UHRglQEhFqPj8BW5a/gDVDbuO2qPvb2/i3nWL2VT/ta0HXHVHPGcG9QKuJUGHQQsQVhGq9mzAUorRvYf90zk8llJ83bibu6oqWLL1HSJYKZ1OBcFSFhvrqnl75zrCVoRB+X3J8/gxuhnYsBXhi/oa7qxawJKty5Jl737gCaAhljOD4jk1rAh4HShNZG+UUvhML6f2GcHkIQHOHXA6Pbx51LbW88b2Kt7esZbqhh1YnYcz2oRSFj7Ty7CCAYztcwJnH3MKY3oPp4fXT3O4nY1121i15zPW7t3EjqY9qOTZuhS4EmiK5dSw2AUggOISYD4wLNZrHQ6lLAwxyPX48Roe2iNB2sJtetgdNI0qZYFSmIYHn+nFNEwilkUwEiRihUGMZBwVBzpnXg/cAGq9UgZMj/7HMWI/OnZRx5nBilHALWgV9kp8Lzs9rZNi58PZ2vl/0m3dA/wZeNwQtd1SkuKjYw+9wMFTwwPALOD8jr+zJJ4m4GXgYeAziP8U8YQIVSpKQPxAqBcwGX2K+BgSfJ5wBhMCVgNzgPeUSIsZiRC5eU3cF07oTCWVAZSIiFIDgauBMmBgor8ng1DAFvQB3S/mmbKvNaKw4nzqDyUpA9PhFkxgNDAT+A8SdMRsBlELPAY8KlCjwIp3uu+OpD6ZHULwAxPR8cG5gLOOznQezej0+kHgYyCUjIHvJOlTs1SWIspAieoNXIKOD0bjpFVIZxAGPkT7+XdAmkDFHN0fLSnzzVIRQCklYsgQ9Arib4FjU/X9DkYB24B5wBJlsFcskj7wnaQ8OJPKAChMhLFAOfDvQEGq7XAI3wNPAn8BtpIkP38k7InOK89DaAMkDzgHuAuYAHhtsSf1tAJvAQ8A64Bgqge+E1vTM6kIQG8f1AeL0TPB7cBI3BsfRNCB3X3A/2FJI6aFumm1bQY5Ij/X2YIIqKHAb4BpwDF225VAFLAdvW/yvIrwrRgKNd2+ge/EEQLoMkYLwQPqNOAOdNaQb7ddcVIPPAtUAl8BEbum++5wlAAAWDARwxNGKckH/gUdH5SSfr9m0gYsA+5HsRqh3UkD34nzBNBJxXiwDMSM9EWvJJYDJzjaZo0FbED7+dcR1YAyUGXRb9WmAqffzM7VRAM4Hr12cC3Qx267DsNOYCHwrFLmLhFLOXXgO3G8ALoMrQyAUl5EzkSvJv4rkGe3XR00AP+LHvxNOMzPH4m0EQCAWRkgoo0uAC5AxwfjsC8+CALL0dP9ClBtCj+UvWf3rTpq0koAnRiVAQSwdKr4C2AGSShLOwIW8AV6IedVEU+9skKOSOuiJS0F0GX8wfhgBLr24FdA7yR/7bfAIuApkB2gVLpM992R1gLo6oQWgg8oQccHk9Db0ImkEXgJvWmzgQSUYzkBVwgAukQAuvDkInT9wenEX5YWAlaht2mXK6TFQ5hwmTveGHaNALo6VBmgozJ3ADAVuBkYEkNfLfTK3UPAS6e+WvX9Z1NKsdLQzx8J1wmgq2MH44NYytb3AouBxwVVo0CpMncNfCeuFUBXBw+WrZei08Yjla03A6+hizA/IcnlWE7A9QIAkIpSvcdEpBfdl62H0Pvyc4BlCppNIOLywYcMEUBXZysCKEREusrWf4ke/MXAC6ZFrWWQ0LJrp5NRAujq9MGy9WJAgXwPKuXlWFmyZMmSJUuWLFmyZMmSJUuK+X+nIIYge2RpRQAAACV0RVh0ZGF0ZTpjcmVhdGUAMjAyMC0wMS0xMFQxNjozNjoyMSswMDowMBGcCc0AAAAldEVYdGRhdGU6bW9kaWZ5ADIwMjAtMDEtMTBUMTY6MzY6MjErMDA6MDBgwbFxAAAARnRFWHRzb2Z0d2FyZQBJbWFnZU1hZ2ljayA2LjcuOC05IDIwMTktMDItMDEgUTE2IGh0dHA6Ly93d3cuaW1hZ2VtYWdpY2sub3JnQXviyAAAABh0RVh0VGh1bWI6OkRvY3VtZW50OjpQYWdlcwAxp/+7LwAAABh0RVh0VGh1bWI6OkltYWdlOjpoZWlnaHQANTEywNBQUQAAABd0RVh0VGh1bWI6OkltYWdlOjpXaWR0aAA1MTIcfAPcAAAAGXRFWHRUaHVtYjo6TWltZXR5cGUAaW1hZ2UvcG5nP7JWTgAAABd0RVh0VGh1bWI6Ok1UaW1lADE1Nzg2NzQxODFXr3wrAAAAEXRFWHRUaHVtYjo6U2l6ZQAxNUtCQuy3oDcAAABLdEVYdFRodW1iOjpVUkkAZmlsZTovLy4vdXBsb2Fkcy81Ni84YnZzM2FWLzIxMDcvZmlsZV90eXBlX25naW54X2ljb25fMTMwMzA1LnBuZ0nGhFMAAAAASUVORK5CYII=;" vertex="1" parent="1">
          <mxGeometry x="509.5" y="141" width="62" height="62" as="geometry" />
        </mxCell>
        <mxCell id="QBQiVsUSkPuhTxbB2Ofl-17" value="&lt;font style=&quot;font-size: 14px;&quot; color=&quot;#000000&quot;&gt;Page Routing&lt;/font&gt;" style="text;html=1;strokeColor=none;fillColor=none;align=center;verticalAlign=middle;whiteSpace=wrap;rounded=0;fontSize=20;fontColor=#FF0000;" vertex="1" parent="1">
          <mxGeometry x="556" y="176.82" width="126" height="30" as="geometry" />
        </mxCell>
        <mxCell id="QBQiVsUSkPuhTxbB2Ofl-18" value="" style="endArrow=classic;html=1;rounded=0;fontSize=14;fontColor=#000000;strokeWidth=2;" edge="1" parent="1" source="QBQiVsUSkPuhTxbB2Ofl-20" target="QBQiVsUSkPuhTxbB2Ofl-16">
          <mxGeometry width="50" height="50" relative="1" as="geometry">
            <mxPoint x="598.5" y="191" as="sourcePoint" />
            <mxPoint x="648.5" y="141" as="targetPoint" />
          </mxGeometry>
        </mxCell>
        <mxCell id="QBQiVsUSkPuhTxbB2Ofl-20" value="" style="shape=image;verticalLabelPosition=bottom;labelBackgroundColor=default;verticalAlign=top;aspect=fixed;imageAspect=0;image=data:image/png,iVBORw0KGgoAAAANSUhEUgAAAIAAAACACAYAAADDPmHLAAAABGdBTUEAALGPC/xhBQAAAAFzUkdCAK7OHOkAAAAgY0hSTQAAeiYAAICEAAD6AAAAgOgAAHUwAADqYAAAOpgAABdwnLpRPAAAAAZiS0dEAP8A/wD/oL2nkwAAAAlwSFlzAADsOAAA7DgBcSvKOAAAEJhJREFUeNrtnXl0XNV5wH/fW0ayZFmSNzAhGFPMbhZDguzQBlI4GuHmH3JKSXq6pHDMEihtaSklsuhpehpsHEICSUMJpVDTQKBQCGvAGtlQCAdKqGNM2BdjbBm829pm3v36xx0tcZE0Gt2nGY3f7xydg5n3vnfvfd/dvuU+SEhISEhISEhISEhISEhISEhISEhISEhISEhISEioQGS4H8584lsA1SKkgQZAXT1Uc6q9q7cSbe4WERm/QFuTvfjyJLD3hbtui6WxPn/BRUhKDiOnvw0EruSmmqZrcEwdKI4aI98isAPlSaAnk172qRcFI92tqjmQs4FLcKgA4gv+7Cpyb+xBjSOxIr0yxb8ku37HqkWXf4Pnb/mBu6YEmr6+FKq8arOl59vaZy4AzLiFKkhtgNeYsq3rrIUH+CdFHpERBHvD/ZBJL0NEcsD3gXexyuLmTwiCY+oC/6DqAEOAOvgzWqu90dWpk2fMNVt7nLbiF666gtzGLnRb31ma1XNRPCdlhiA8YVrgzawa+LfDv7eBuwSNhuv9IyoA2BEpG9W+AfwIyDprUQWZ4hOe2ohUeeOX10+kJ2g2ujA8cZrfdOFSZ2JznT34c6Y0aq+5GqMNrtrAm54iOG7aKG+hKLLAymwYvS068qwy4qM70q2E/j5Q7gRedFpEhWBuDf7hte6GPkW01yzN/mr3QvNJH03Lrxq3yKYrL6Nr1ZtoT/SHmjOLndXfF8JTG/HqwziG/meBB8OsT3tL64gXjq57quDJJ8BKYI/TYgZC6rRGpC5w1wiRHqS90V/LjNRUXb973OLMRz3UfO3IudodXYqSclJGBf8zUwiOqHVU6d9gN7AcdFshr3fUKzItbYgqAk9i/9yh4M2qIjx2Gi7Xv9pnluju3DnRpi6all5StJxFSy8mdWydr925KzB6rKvySZVnFX+KH0fvvx9YC0Im/c1RLy5o9qmqBoUuYDmwyWlxBcIT6/FmVrmcCmq1z1zjz5lyiO7JFSXii9vuIOrsJfvm3lO0T7/qbIumEBxVh/+ZKXG8/A+B7wHd+IXdUNBlb/1bhnl/9LsgXifoHGARDvusVHmIL+Te73KoBHowsGX6txf8Ylb3PD58+aUx3X5w52ykLpyiu7IryWmTmzKB1AVUfXGWnfbcYoDlRr0HEbSjeVlBNxW8/sw0t4KaCLgZ2OC06Ar+kVPxD3XYKxRf+8yf72hdf3y0vZfztPDZa9GVl5H7oAt2Zc/RnGl2Vk8PwpMa3I52g6wDWeWJmo50a8E3jXkD4qPvY4cZp5ttOy9OdzsvRnqY9pq/9GZXV2/60/8s+DazrY/g0CkzTE/0NximOSmLgjezivCYOqfrnTw9wApVs3GshtUxKUAmvYzI2gjvA55zWgUF/5BqgiOnuhXbZ75iPu79HbO5m6bLLx31+kWXX8aHq+5Be8yfEOnpzgoSCKlTHe94BlmN8piI0N5ceO+HIkaACEWQndgF4Q6n1fCFcGEDXoPDvbHReu0z13hzqmeanaPbsqItPRz61QuO0O5oKUropAwKwWdr8OfFsu3bDqxA2KVFNNqYFWBtuq3/MR3Aw06rouA1pggW1IPvcJzMmTN0b+68rlXv0nTx8NvCposuJphXG2h3dCVGj3ZVJ6n2CE/LWz3d9/47jdHnVZWOdNuYby7KCJm3LfdhjUPvOa2OQHjcNPzZTreFofaaq2r/4PD5Znvfp15y1v3LMFt7yW3sOk2z5nxnzxYIjpmGP6c6jpf/DnCr50m2o2XsLx/GYYVWFIO+CtwBRM6qpCA1vu0xKad+gqM0ay71D68NT7/w4v/3c9fDW/Bmpmrojq7G6MGu6uJNCwlPdDyiWXLATVGO18cjpOgW7ki34SEK/AvwitOqKQRza/Hn1jjtNdpr/jh6f9/pZks3X7j6Lwb+/+IrLiX31l50b+5czZmznT3Qg/DkBrzpqTh6/4vAT/1gYEQutojFoyqI6BbsVLDPafXCvJ9gqsNVs9EZ9Jq/9WZU1+c+GixutC1LOH/qLO2JrsJQ5+RZCv7saoKjY9n27QOuR6RTdHyNMy4F6GhpRa278REg47SKCt7sauf7Zs2as7UrtyS7bgeLrvgGTZdeQvru2zB7ows1p6c5e1AodhqrjcXe/zNgNaq0Fzn39zPuSdaoAdgLXA90Oq1mv+VshsMhVKnW3ujq4Pj6w6LObszWXp742kXztTf6s3xQhotnEBzufgrL0wncCOwzUqDBfwTGrQBrWq4DBEVeAAo3txWCgkwLCE9pgMDhMBDpAnrN16sWzfSCw6YE2h39FZHOd1bmGp9woeNF7IB0bvWMvCwKa5qvHbdAZ616lg0inY+dDo5yWus+Q88jm4k+6HJXYl82y9RgiUC12ZN7CKOzXJU3dWojqcUzwHM++W8Avgy8M56F31CcqaiokGm++03gh7gMHyPvJ/icY/95pHPoMddpd/QPzl6+gtcQujdkWfqAlZ7hHZezitNS5keB6cBDwBlOq2+U3tVbyb66212pJW+/0EK956PgCVVnziJcUO+06nlWA+cD2131fnAcjiiioGwHbsCGJrkjjhg6xXf28hX8g/POLPfbvl1Y38t217KdKkB7cxuIAPIU8LjTkvZH0Z4QSxTtuJFU3t5fE8u2716QZwAyBQZ6FIrzpow4DtBuYAU2RMkdAuHx9fizY7GrF4+C/1u1BJ+NZdu3EeRmoKcmBuHOFWBt+rx8m8grwH/gskkUpDafT+B+izWuMqVOaYTQ+dhvgFs8z3sVgUeL8PaNRiytmEkvQ1AD3AKsdypcIZhXi39YLL1t7AiECxrwZsUS5vUKcLcxkWbGGOhRKLF1IxXFQzYC38Vx+FjMZtYxVLI/u6cujpbsBpYLsknHae8fidgUoKO5DWPfzgPYTBV3KPgHxeZoKZx4s3ueUnjCoBTr6y+EWCdSz24Ld2H9BNtclzxGV+voxJvdsw24wRN2azT+JOSRiFUBVje39ffQZ7DGIXcoePUh4ckNbv0EBRJzds+/Ai+owpol18Vaj9iX0kPCx76DTTN3SnBUXVzhVsMTb3bPW8CPgaxLi99wTMheShVMpK8Bt+M6fKw6n09QHUvA5ac/sy4gPKk+jpEnB3w30zzzDZkghZ6wsTPvJ5iNDWb4vFPhRul5eiu5DQ79BMMhkFo8k9RpjXFIfxb4CrB1Ino/TKBRVW125VbsVLDXqXA/n3QxLZaki6GViDO7Zy+wHNWtbo8KGpkJU4COwXyCR4F2p8IVvBkpwuPr461RvNk9D6GSQYSx5PaNlwm1p2YlBNQGNMIWp8IFwgX1cVnk7LYvvuyezcCNiO7zsxNr4p7Qpz3bfE3+kfIicJ9T4f02+YUx2OQHFpuxZPco8CMVG1r/9JdHP9TBJRPuUcmkWwHNYTOMf+1UuIJ/RAxeuXizezYAd4liJmrhN5SSuNQEIZszbwM/wNoI3MlOeYSfm+7OTxBvdk8vcAPoe64FF0pJFKA93UoY+IDcDfzCqfD+yJz5jlbq8Zqc1yg8bM/zmfjen69eabDvRndgA0d2ua5VeErD4AmcxRJvds9OYIXAjlJ6tEqmAO2DW53VwGNOhff7CU4a57Adr9v5J4j3LCL5dVFpKGlYjQ0coQdlBbDRqXCB4Ohx+Anize55H7gFNb1xBXoUSsnjqhRFRdcB/46LA5gHBdvjaIvZusWb3RMBNxsTvVYOEU0lV4BMug1BDDah5FdOhRd7NEv/IRUHxWJU+qXCT8TzNdNSmoXfUEquAIB1FyKbsEmP3U5lj/U42nize7qA632Rj4o5zycOykIBMi1t5N/OfwFrnQrvd+AUeiq3L4QLYwvzehL4uVFlTQwRvsVQFgoAoDbVeTfWT/CJU+GFHkcbb3bPJ9iMqT1o2TR7+ShAR/O1oKDKfwMPOhWuIFODUf0EMWf33C7Ki6KQaZlYe/9IlI0CAGRaliFCFrsWeNup8Hz2jn/oMNu6eLN73gB+rEKuvQwWfkMpKwUAUFVMLvc69vCp4o76HgZJ5T16+/fweLN7ssCNnhe9VSbrvt+g7BSgo6UNLwgVe/zc2I74Hg0Ff86nzPHxZvc8j/KAiXzKYdu3P2WnAJB/B6IfY08fcx4+Fi5sHDyONt7snj3Acjw+Hu3bPaWiLBWgI90KtsEeB55yKjy/zx9w78ab3fMA0IFC+7mlNfkOR1kqAIBvz2nuwm4LNzsVLhAca4+j9Q+pjiu75yPgJqDL+O4i4V1TtgrwdPoaBBD4H+Bep8LzfoLU4hmkFs+II7tHgX8G1gGsOefvJ6TNiqE8J6Yh5PMJ5mGjiZ19uClm1mFP8/qgVIEehVK2I8AA4iFR9l3sF0x7S12cAugBVojoBxMZ318sZa8AmeZvon4Idhp4vtTlKYAO4FHViY3vL5ayVwAAgyA6ED62s9TlGYEd2NO8dk6C2RWYJAqwJt2a3xVqO/Yk0nJlFcpzKCUN8xoLk0NN8+QXhCdiP1Uzt9Tl2Y/3FM4FXuso84XfUCbFCDCIAroeuAuX4WPjJwK+153LuU10mQAmlQJkbBCFwX7O/pVSl2cILwH31ASBTqbeD5NMAQAQD6yV7UaspbDU9H9Tecskm1GBSagAQ8KoHwbWlLo82JyGp2HyLPyGMukUACCKAhDdg/UTfFzComwFViLs8aMydPYXwKRUgLVL/g5UUNXncP2VkrFxmyIvofD0kvII8hwrk1IBIJ9VJJLDnkT6VgmK8GuUOwSNyt3ePxKTVgEAFI9s1PgGdlfg9Cslo5AFvpOr9t6WctqMFsHkW7bux1lPfAuUmQgPAYsn6LEZ4PeBbZO598MkHwHAHjaB6GDMffzsBpYLbCvTKK8xMekVoD3dilg1+Dk28yZu7gfWKtDh+OsdpWDSKwBAVTWoDhhkNsX4qA+xZxt1O/rSUMmpCAV4/MxlIILi/RK4h3gOijPAD1X89SBkzpn8vR8qRAHAWuEEEwE3Y0/ecs06YJVoZCajxW84KkYBBiqk+j52mHb5lZIeYIWqbhSpgJXfECpKATLpZRgRQO8DnnMoejXKYyJCe4mPdHFNRSkAQIQiyE7sgnCHA5HbgRUIu8rlUAeXVJwCrB08lLoD6zEcL3dGqs8r9sDrSqOyJrQh5MPHTsB+n+DwIsW8gw3zen2yW/yGo+JGgH4UxaCvYrOMi8nNygE3RRGvl7oucVKxCtCRbsNDFHvOwCtFiHgR+KnvU7JjXCeCilUAAFVBRLdg08z3jeFW+00DkU6J8aON5UBFK0BHSytqPTaPYD14hfIzYDWqtMf40cZyoKIVAMCoAXvIxPVAZwG3dAI3ouwzUiEG/xGoeAVY03IdICjeC4wePqbArRLpywBrmq8tdfFjp2K3gfuT3xbOx04HRw1z2Qbg94B3K3nhN5SKHwH6ERUyzbe/iT2T+NPCx/qAlZ7ybmUv+/Zrl1IXYCLJjwLTsd8xPmO/n1cD5wPbD5TeDwfQCAAg9mvm27HhY7uH/LQL6zvYfmB1iQNMAdqb20AEkKewJ5D1cy8iz4CQqYAwr7FwQCkAQMRxgHZjD5v4CBvmdTOqPTVllXA8MRxwCrA2fV7/f/4vcCfwffH8DYjwaAV6+0bjAJvxBvnS4/8IovWqGJA9mZbKCvRISEhISEhISEhISEhISEhISEhISEhISEhISEhISDig+T9S6byhgduhCgAAACV0RVh0ZGF0ZTpjcmVhdGUAMjAyMC0wMS0xMFQxNjozMzo0MSswMDowMDHayw4AAAAldEVYdGRhdGU6bW9kaWZ5ADIwMjAtMDEtMTBUMTY6MzM6NDErMDA6MDBAh3OyAAAARnRFWHRzb2Z0d2FyZQBJbWFnZU1hZ2ljayA2LjcuOC05IDIwMTktMDItMDEgUTE2IGh0dHA6Ly93d3cuaW1hZ2VtYWdpY2sub3JnQXviyAAAABh0RVh0VGh1bWI6OkRvY3VtZW50OjpQYWdlcwAxp/+7LwAAABh0RVh0VGh1bWI6OkltYWdlOjpoZWlnaHQANTEywNBQUQAAABd0RVh0VGh1bWI6OkltYWdlOjpXaWR0aAA1MTIcfAPcAAAAGXRFWHRUaHVtYjo6TWltZXR5cGUAaW1hZ2UvcG5nP7JWTgAAABd0RVh0VGh1bWI6Ok1UaW1lADE1Nzg2NzQwMjGsgv6WAAAAE3RFWHRUaHVtYjo6U2l6ZQAxNi4xS0JC/IhOwQAAAEl0RVh0VGh1bWI6OlVSSQBmaWxlOi8vLi91cGxvYWRzLzU2LzhidnMzYVYvMjEwNy9maWxlX3R5cGVfdnVlX2ljb25fMTMwMDc4LnBuZ+1iFxQAAAAASUVORK5CYII=;" vertex="1" parent="1">
          <mxGeometry x="655" y="141" width="65.82" height="65.82" as="geometry" />
        </mxCell>
        <mxCell id="QBQiVsUSkPuhTxbB2Ofl-21" value="" style="shape=image;verticalLabelPosition=bottom;labelBackgroundColor=default;verticalAlign=top;aspect=fixed;imageAspect=0;image=data:image/png,iVBORw0KGgoAAAANSUhEUgAAAQAAAAEACAYAAABccqhmAAAABGdBTUEAALGPC/xhBQAAACBjSFJNAAB6JgAAgIQAAPoAAACA6AAAdTAAAOpgAAA6mAAAF3CculE8AAAABmJLR0QA/wD/AP+gvaeTAAAACXBIWXMAADsOAAA7DgHMtqGDAAAAB3RJTUUH5AYMCjASpf97QQAAHgpJREFUeNrt3Xl8nVW97/HP79lDkjYtpYxSOAUVacogbSEpIk3SgqKiyKCIAzhwvSjoOdcj99wjlKEBrh6v5x6ZJwUUUQEHBHGAtkkRSmlTptICMpdR29Ixwx6e3/ljJaQtTbL3zs5Q+33/A69m72evZ1i/Z80LRERERERERERERERERERERERERERERERERERERERERERERERERERERERERERERERERERERERERERERERERERERERERERERERERERERERERERERERERERERERERERERERERERERERERERERERERERERERERERERERERERERERERERERERERERERERERERERERERERERERERERERERERERERERERERERERERERERERERERERERERERERGTY2HAnQEaehsZagBRYijhqB7y5ZeFwJ0sGQWK4EyAjS0NDLe6eMIvOAM7B3MzilybuNyGz/3578/yLrw53EqWMouFOgIwwZpCwUcDHgROAGxy72bBjsnhlV+lA/kGoBCBb2Pfde2NYJXAK8F4gDdQAHzFsX7DXJr57wt/33Xfv+CWVBrZ7CgCyhX332xugAvgUIQB0GwVMBY41bGeDl96738S1E/ebwIsvvjLcyZYSKQDIFvoIABAajccBRwKzYjzp8GLdfvts2mO/CbygEsF2R20AUooEcDDwfYNf/g0/MQ+VDY11w50uKZICgAxEBdAA/NjgtOpxMfUNCgLbEwUAKYedgI9tXBuNNo0s2a4khzsB8g+jytWmtN1RCUBkB6YAILIDUwAQ2YEpAIjswBQARHZgCgAiOzAFAJEdmAKAyA5MAUBkB6YAILIDUwAQ2YEpAIjswBQARHZgCgAiOzBNBxYZAS5qPQAgGRFVAZl2KjvTZLlw2rJB/d1BDQBHzToMj/JRIp86CLdPGOBwVy6VfyKKLb7/vsWDenLl1NQ6GaASfDpwCMbjji8C2s+f+tRwJ68o9Y11gFcY9i6cXGT2hkNu/vyHhjtpRWkMS5CNdqgFdgEezhsrI8db5i8a7uQV5OLWyRiWjIkPAz4DTAL+VuUdv8P408UPTdrQvk8Vl0x4ZFB+f1DWb2lomE6+o4JkVecEx78AfIWwwKQDLwA3AjeT7FxJPk3zvIcH5eTK4ZJHaiCKojgfH4RzJmGxzF2BVcCvwa+yVPyE5y2ePeXp4U5un+obazFyBqn3AWcCxwOdwC+Bm7LYiylzgLE4twEfLuLw9zqcDKwf7MxX3zgdh2SETwHOBo4jrFq8HLja4I5sPr22Kr2Je+9bOtSXuSAXt04m4QnLWW4/Qv44Ddh7s49sBP4AXOnuC80sM3vairKno6wB4OjGOjJABGMIN+UbwGFAaquP5oBHgCvcuTORjdZlq7Pc/6clZT/BUjUtrcHTEZaJJ+B0B7H3bHXNugPaj8B+Yp56xS3L7GnLhzv5W2iYdTjJyg6ybaP2sPCW+Z+EN033ueSBx4CrzLjDwXFuBz5UxM8MegCob6wjjpwob/uZ8WVCpvmnrT7WDswFLsd8AW4dzSOoNHBJaw2bPMEoi8c7fjLwdcICqxEQA+sIwayi6ytvArcC15KyZ8i5z55avkBQtgBQ31ALTprIPmAh438YGN3P19qA+4DLgfuBzuG+WRf85WDS1RnifNQdxM4GDuedQWxzOaAVuNKNOyPPr8+kxjDnkNZhPReAhsbpGIx2/KNd5zKdsNnHtrQD9wIPAF8D9i3ipwYtADTUH4EnMhAndzbjJEKmeT99N2KvBm4Dv5o4uwxLeHPz8L5gmlongVGF0wD2z0A9ULlZen/pxq3mHA58lZ4g7YTSzfW4/2JVtOHN8V7NBdMGXuIccACob6gjzkSWqIgnEd4snwH2KPIwqwjF0Gsj4mVO5POHIRA0LanBnLRHTAe+CRxL/0Fsc23AH4ErPLIHcDLnTx2e0kDjzFrMPRUTTSME5I8TSmaFyFP8+n6DEgAaZtYCVOLW0HUejUBVgV934FngBsNuybalX0tWZWhuHtq2jqYlBwJRAssdDJwFnATs3PXndsJL8AqcBRgdicgtH9v7CEHgs8CeXZ/NAA+CXwb2J6BtoNWCkgNAQ30d3uZE1banh0T+D+CAARxzs5vFLbn2ytcSlZ1DcrPmtNYQmZu7vY8QxD5L8UFsc38Dfg5cG6ejp6JsXNZiW18aG+tIYJYjfjfYGcAXgAlD8NNlDQAzQsZPRM5BYF8jtL2ML/FwWeBh4HKc3yeSvvHVp8fw1Mq5g3pBmlonE8Up8lF2H8NPB75MKFUZIcg+Clxp7r/JR5m1qVw136l9PHx3cQ1A2iPqukrUHwGquw69HvgtcJXlaXUjN/vw0p6vojOrL4MZZ00nEXl1V6K+AdTRe7GyWOFmGVfi3E2U3ED76zQ/+HyZDt/jokdqOOAF568TbXfgVN5ZNx4IB54BrnPj1uQ63shXQ6k3qj8zZh1Bui1DtiK1i5l/ilCEP4ihG+tRlgDQMHM6nk5jnZ17E+r4XwH2ozz3pLth7bLIWARk580rf0nzgmWHkm7bhCeTY935JOGtP5XQ6+bAy4SG8BtzqezKRC7p2+pJamo9HmMFkKwGP85DFa6WnuroSuBmgx9HpF+Myfp5RbY/FXVR6xvqMEhh1NLT+lpdzDGKsAn4g8MVuC8EMi3N5estmNM6CWC0YccSbtCRlC+IbS4DLAKucLgH2Hh+mVtz6xumA1QZPgvjG8AMeuqWQ2VAAWDmUdPIppNYPh4bWfQJwvM1jcHpqn4NuMWwGyKPno0t9nJ1gTYtnQRQgduRhJfjhwiNegBrgV8DV+VIPhrh+QsK6OdvWlyDr4+xcdFewOeBMwi9at0liSeAq9ztjtGZ3Fvrq1JcNOXJgtJbUABobJxOwpOWs+z+XT/+OWCvslyx/nW3gl6Xz9jTUcq9pbn0qN3T7+qHgZ8FfAIYOwTnsRG4G/wKnIeB7OzDBjZ+YEZDHbglIvNDMb5GqFuOG4Jz2ZaSA0Bj43SAtOMfILS9fIji2l5KERMa1q7B7JfVbeNXrR/9dxbMLW1sStOSGuI4iqJEPInQxXoKsHvXnzuBFuAyw+Y53l5K3f3SpQcQRXGUyycne89v7Nr15w5gPnCZG83mdBTyG30GgBmz6nhu54j918S74W93H03u73uDoLs4fS1wa3b6ojdTDx5Bc8vCgg/wdr9rlH837t1dSHsXfIDyeQ24BeMGInuWuPhunYaZtUSpPHEmMRHsdOBLFNdiPxiKDgDbaEA+lZ5MM1TezpyOzzNob55fREnzk3DJ+ZOJY3bB/EuEtrD9CXkkJrydr42M2zvHbVpVsXoM5x5e2Nu5N01LJgNWgcUfBP4FmEVPw+ga4A7gv1JRvCIbR/QVCHrNyDMbDydvCYy4FrdLgQ/S0zc5XDKE7sJ/N2dxPmEsmNt/0e3i1hoMT8XYqcC36Ol3HS7db5//53CrQbbQN0L9zFocxkRu3fX8KYyMHXmKCgANYQ/BMYT+/K8B72PoXyybWwvcAf49jGfJG80t/Z9HU2sNBuMc/j+hZNxdP38V+AlwAzl7gYT77MPKV/U7f/F7qU6NpjPXOQ6zE3nns7CYUFp/vK9nq9dMEBNh7qNw+xYhwgx35odQR58FfMvNqqK4sC85EGPTge/Rf//xUIgIDXT/F6j1Ar/U0DidKI6Skdu3gSsIg6xGQuYvSkP9ByCRx43Pdl2DgfQelcs44AywObiNKuYJ8TDm5RRC5l8P3AJ8yiMucOP52XXLy5r5AeYc/iz/+9DHAFvrnfzYQvWvidDACGHsyhmet+ScJZN7PU7vDSzhqazChr1ouS0Tca8i9KEW6gB66ksjxa4W3nwPFPZxx43xhCG8hfaFjzyJPJBMGj5tBJ7H4YTNTtv6++CFrTXdw/cO7jqPHPADsO8D7edPKW0MyIUL30Ocz5OurExilnTAzHNRwnI4fOfQnmDSHVguWTL55ZTTlIn8QUIX9C7AwZbwakLpZpu219mARb0tuj5shb5ph/Y8vOB3TVf6EzbyMk1RHMMxi/CR+PwlKfT5SmapWLcL7aPXd5eOswZP9dbI19RaA87OGNMwKgyeXu/27O4W0xFHRPmExcncrg61CZjqsA+hl83drS2f4zXgyaalNYsSllgZexyf1zXQ7NzDltPUWtNdtdxECACV/W3Y2vsNKG+BLAu80XXUPRl44HEf7gLj8ClnHOuaurHdvgi6rSO0q4xjiKsSvsV/CmDUA9fijHW4aqc4dU5HlI2JPBlb7jgPbVRT6L17vQPnubznf0TEj5qW1qzvpxG5z7QV8vYZ6AP3PHCRGUcT6u8XAM+V4bhSujywBPhnwv34K9vn/WgD7iTUvz8B3Ewfxd1hZ2BGFaHbuRIYE0cemWdw5yQPvVxHETJ/FniLMKr0b13/n+n63oHApcT8H2IqmpbUlJykPiJ/9/NQckBdA/wKuDpO2mMWE7vFYHw3ynM32JnApwlFleKvpRn49vjMDrsXgRsdboqNl8lmoyiZ/J2F+7F5v/JIlgOWAlfi3JnJZ9elkykIE7J+TRhEVM/IaLju4YBtEWgdEnEcpfbE+VdCF6gT2oRucVhhsLZrOtBYQnvRycAxhEDwVYz5wL3zHii4IWkL/TUCegn5Pwaawf4DvAWsY8G9W3TVxQ2NdY87fMvCeOZ/I0zwKOaXQupsx60HlOAtugJyIuKxGMu3hC7UuKGxbpnDvxr8hlAqmEXP6LWR5gXgBjP/aSYbr6w5cT0TZyTHOe2jEgneWH5j+q5Xn6hciHMKoWus2HErqwhv2iGyu+MvTyZkboCXgLPjmMeSSTh3SijeX/rwIeSSHX8xT/weuJ4wuWsX4KPpuHPuwsoDCuwT21IfVQAr8rq97SngLCz+E3Gyo3kbQyyb5y/C4rgDsz8ThksWP6/RXSWAwj0OnOb4N8CXzp27KD9/s/ET4X5EnZ7KzHXzLwD/i1DsHGmewzitozL73YO+2L7yw//VVjlxRuJD4LcY3BPnOXvS6Znddqn0VWseT15JGFhUzBzg14BrEtiaoXq1pPijE9ouuscPvAW8GUU9mR/gO7WPM6othYeRsTcSqjoxsG8mSo+KS+zZ7rUE0N3IZsXXDVe42csGNLf0XihpbllMQ2Md5v6Smz1FmIRTMFfmL8aCUSnu6chZ3Nvkl+5RlfWNtescv92w0xj6UXn9eRbn8UOPy8e7H5h7D6HB7BR6qpH/gXP8oU0bvvvZqfn7/vOoXZ5KpeInCF17fdlEmKfxQ3NbFJvHQzUdPcNMsxBsOwmlrgOA84HfNC2teYbY1zvW1hnlOjd4jpRHgM11869gjMV5MbaowwArIU8MRutvzs3igsKGg7vFGLmif0XF/2LEVZV456aivpMf7kRvgzvuY/8pB6EI/PWt/l4BzAQ2PfVk4sG1LyU7dntvpq8nMUtoN7gcuCsm2jDK1vDH+UO3tJvxlkWwLA7TlT9MCAJnAp/DWY3ZKwYvVXryZeAlN54Ff8Yi7sLJnrdZd2NTa/GNgb0GgAFkr5LrDkXYgXsBSxMX/3IYuZc4PGEVfbxk0u4exdleT6F7KbfrgZ96Ov2qZbMsmFf43JLyiaM8rLXw1h9FWLEpRegpGEuYCn1U14dzhNLKGx7zIHDrJa2TFjhkzptW2sSyPsYBdF28kVrUHrmPp4wU235G3gJux7jKEzxB7HHLn+4f5mRGZNdkHk6NT55KKNnMIgwV34Uw6KuCEBSShFGKOxGqCsfF2Bycq5uW1JRUYiukCjAyI4CPxIF9MiQc8D5b6rMGnu0Aeqoy3dNlr3BnPk57yyAsBlKqOcf8laZFNa+StWuo9JuBcW7sifEuc/YE3kUoDRxM6NmoBnYDvm3GXzysLlS03gNA3NWrMDLr2moDLFKy+EbiEXuFN7yaYMxe8e8JA2I2XwMhCzwEXJ2OaNv/6Pa4fVV0H2Htirvc/Y4syTWVlmXe/BGyJ4XlU3j8sYtbJ+/v+DpP+q8M1syetqIdeB145PuLajindgWXLJmUImKnGDuGMLFtH2CCh0lhj5by8733AnSnb7gvUK8XbsQ+nyNR1eoNlvSQQQqRZuhXFCrEBMP2Wv7z6qfH77/2mYpx8TcM+y2hK3kCcBPwM9/gr3fERvuqCMLAoHuIaTMzf7D5weE+h81516S2sxw/BthgIdPfvfmHzqkLDX3n8lS2qbVmFWH048mEAJBkAAva9N8GMEKN7NSNOMfF7iuBmxs/NOVlz6XesRlLfX0txHFkMBnsLEIddKQ5EPiRRfnLHri4+p5EVbRxzAl73X3YlOUPutnoKOZVN+LZDVs0iOUJDWcjkRm0e1jbD8KqzSdH+IKLl9SsP2+rKcRNV3V9w313ehaA6WQAYzYK6QUYma9aRYBivIvQyvxxz6avcOfOmUcesS5bnSXRkSBamyOOor08sq3XmxtpIsLaje8H+0Ou3a9862evLLz3Z2PXtDQ/vGa4E1eK6tQeHRuyb/yBMJ5hNPDpGEuYcVtT66SnwTYAsYUhOWPd/UDgi+EaAPCimT9c6uy4/mcDjszsPzJTNbIlCQNirjbjpDgdX57IRAuISMfjk8eBn21brjg7klUDnzKYgdmtmF3XcPQHniaOvXne9rW/4YbsmsiMP7pzC2EF5Crgcw6f7Mr8G4GsQxJsDKG4371e4jrgh3mL/hqV2Ci23U4DNY0EKNUowsy56WB3EzaoOIbBW915MO0B/Avux5LPXwf8orFu+hte6QUt51UOA38K3dzZiPu5mL0GnE7Y7qya3u9JJ2He/w+BX0Sx++xpK8o7EIjYAHykNrbFlDT3QXrsTtioYntnQA2hVfwEH+WXYfbHhsbpm5oHebdjw8hFuS3/qaTl5iKI4tVgl+J+G2FZ9/cTAsE4QqmskzCG4QVgMfj9EL0CIfNvlYZu/WbePuYCePfRio0AWfC4iK85lDAUuAhe2nkMBS+hO2O7L/oY3j1uvZxRPE3IOFNwvxvs8vqGuiVg2ZZB2l0qRYpMZRsWiuIAFQ4ngi/77qP7L4/jKP7O1L6HFXvXhNuuRT1ywFNNrTVP4SQ88ircUgYRWAyeycW5djOLLzzsmbePcdEjB7J2zBhYv34P3E+jZ0r3WsP77Pkp91DgTmBxlEt3EvW/XJ+7MWp8Z0f72vRi4EQK35jDrcgUelhWfDUD2/Kr3FYT0lUQCyfeibN6uBO+rXMxJ1PIbYnc6fRUNmW553k7PpfNGOBU8Blm3GJww9GNtc/lsbLvN/md9y/vLnYvIHTfvQs4GWxKNp+8HrjlB0snv9buTveYfXdG0bNMV87iTLx1j1vXGz1PqP/3aU5rDcTx6PHr1h1L6A49gpCP8sBcp32D9bHFQrlWx3XCyj+zwW4i6qS5gIEWLS0P0bY2jTs/Bs4j7A1Y2BuxqBkHDuYPAf8OLCv4NwaPAyuAcw0WFfP8R7G/BVxDT9fRSLACuDFKWkc+1/+lnTf/YVKWA/xmwnj8df1+qXgTgHMc/00O+zrGbsceWcvMxrqy/ogBkbEQmAO80vVP7wUuBm5vdz/VYZc5rZPTmE0g7KbV3dC62knGYdnP4sxZWsOcR2pSBkcYXEeYIlxPyPwbgevAbzaq+tyuvtcnr2FmHcDOOHfSMxlhW1YDtwPX5KP8E+YWL5hX3CiroxoPI7Z8lPTU5AJXpllgxvHA2vkFDucM67ebxcT7W9g0cyh3N9pc105Hdp2Rf9qJvJhdYhpn1WKRJ+JcNI2wpdnxhLHhw6F7V+drcvBkAryYXYG6tjQbZeYz6VnFZzAGIHUCDwKXG/ZnYFO5tgKDsO8EWMLxwwkzFI+nZ3DOJsIovecJi350b3e2kfAM/q6Y+9/UWoO7mdk2N399exNUd78bs039bUPXawBonDkdYGd37y0A9GxrbL4At47mARaxGhrrwKwC9w8SHojN91XbXAvYJ4G1xTb0NC2dDEaK2GsJRaaPMTQt4JsIG1Ne4fhCwzID2dq5azutUV0jyL5J6B8fqiWw2oF7DS53436gs7nEcfUzZh1BxcZNZKoqx5vZyYRVfA5mcPY7WA/8DuN7lmdZnIKW+8pXLeiqDowibCvfXRzv7Z7cFsXxV91s3XkFbBHX9MjB+N9fxsbvtQvGpwlThrs3f3XCuo7Xg//M08nXLZunkB2neq8COL0VlPOEOdRf98hPi3L253wyHnDmh7AyTUWU7szls3NxP53wMCxiG42EvSevb7OnLofFy7MkogcwziC0hP+FwVsGqnt8+lfN+XIc0bLT+oFlfoD58x/CyLfNn7/oTjP/DHAO8GSJl6VQb997zE/LeOa+dJQuOfMDLJi7kHsXPU5ktiYVqgMnApfSs8FFOY0FPo9zZhxFScuXtz119rQVxDFtf3/Zf+2hFPtNYB6hpLQJ2ECoJlyD8W/5ZLSuMtN/GppaayDOVdmuex2H8XPgP4FDCPn378CVYCfGycQPiKLXzz94WUGZH/ooAdQ31gLsbFh3CaB7DvWNDj+J8ZURVlSRrxhbbRPdPULt3V1pbgH/JLC2qH3ctr6wi2tItiXJVmf3NOzzwFcp3yi47naRG3D7qUfJV81zfdbHStXYOJ0ECcuR27/rHD5LaJAqpxeBGzFuyuZZmYyKK+4XfC4zazH3pFt0qDtnAicA48t0+DyhOH7+Tgc8es/aFdNoaRmcuQFNi2vCipoJdiLsFbgX4SXzAm4vYHS6UWF4tGHjhvbdd92db09euuUxWg8kNktEnj+EUN3bfOJTG6EEfhnmfwE6Z08tfk2A3gPAzDocqiLnKuAjhAUjr4mT2SeIo3jB3GKWWivdjFm1YB5F+ehgQongBOBuN87GaS/HQ3hxaw1RTJSP6N7Z9TOEqZalCu0ixtWpyJflnfjcKQPbCbgQM0O7TSp2phOqUB9l4NWbtwj3/sruxUTnF7Af40A1NIbnz6Ch61waKX1DlO5gfBPYT7Oefzlp0aC9vHoz59EDiStHEbVtHGPOoYQXWzVwLdhCIDt72nLmLJlMLpcilcpMJAz7/SIwkZBf314R2fA7o3R6XWbjJi484rmS0tR7ADi6juRGyFexN7ArztNAe/MAtuYeiPqwmWSVGQeYsSqR5ZVsRXnrcHOWTgKjwmI7klB8O4biVsdtB+YCl3voGurorxGm3BoOPRXGPwseVRNanM+mtCG+HYRzKG3X3HKcS/0RkMpALrkzxgmUthnqm8BtwPVx3p+0iLileWjPo9ucRw4kTqSiRLbzy8BF9DRCvw78FLguW8Fz6Y54nFt0AuGtf+hm5/sC8GOHm6N0xUrPZkKVdgC2+0El5XbhwweRrMgQ56OdDDse5yxgKn0Pm84DjwFXmfuvEp5f2xlVcOG0ZcN2Hg31dVR1JGmryu6F2eet8Ek+MaGr9Boiu21cZrfVa9JvsGDu8M2fb5hZC4ks5FMTcTud8Ebct59z2QDc43A1cbQQ88xgDQgq1JylB5LObSKXqNzVsVMIPQY1bLmV+G8Jz9vR9JR43l7SHU8+BnF+9mED22K8mwJAL5paJ0M+DcnOfXC+CHyJbT90LxF2pLkxk8y8mMqnOL+EuthgaWioBSciYjL9d7G+Gs7Ff5S0xAt5j8s+eGZg53IEYAksfwihqnYS79xYpoOwR8aVmP0Z903laKAup6bWmrCzTez7Y10LgPaswLz5wKgOYIHBZQ7zzGk/r8y7DCsA9OPi1smYkYjdDyFE7JMIE2jeIizMcCUxjxCRH2jL/mDaqot1680/1gN3AVfgvgQsN1xVvYLOZWYtQCVuMwhVtXpCFedJ4FqIfr131Lrqtfj9I2fln23o2tIrjfFBQrfh0fRsC7YcuNaM29rGbVo9evUYzj28PG/9zSkAFKhpaQ1AFc5RhH7qx3EewGgbyRl/cw31R+AVHZBLjTO34wmrynQAtxr2Z2fkvS17M7NxKlkbQ4KOnbvuySjgwbyxMvLB6aEYDBcsO5SKTRuIk6mdHJtBWO/vTbBmiF8CK2qgWLEUAHZAMxoPB7CIaDQQJ6EtBuZtJ5lGREREREREREREREREREREREREREREREREREREREREREREREREREREREREREREREREREREREREREREREREREREREREREREREREREREREREREREREREREREREREREREREREREREREREREREREREREREREREREREREREREREREREREREREREREREREREREREREREREREREREREREREREREREREREREREREREREREREREREREREREREREROQfwn8DXX6fuX9LKmwAAAAldEVYdGRhdGU6Y3JlYXRlADIwMjAtMDYtMTJUMTA6NDg6MTcrMDA6MDCmSm/RAAAAJXRFWHRkYXRlOm1vZGlmeQAyMDIwLTA2LTEyVDEwOjQ4OjE3KzAwOjAw1xfXbQAAACB0RVh0c29mdHdhcmUAaHR0cHM6Ly9pbWFnZW1hZ2ljay5vcme8zx2dAAAAGHRFWHRUaHVtYjo6RG9jdW1lbnQ6OlBhZ2VzADGn/7svAAAAGHRFWHRUaHVtYjo6SW1hZ2U6OkhlaWdodAA1MTKPjVOBAAAAF3RFWHRUaHVtYjo6SW1hZ2U6OldpZHRoADUxMhx8A9wAAAAZdEVYdFRodW1iOjpNaW1ldHlwZQBpbWFnZS9wbmc/slZOAAAAF3RFWHRUaHVtYjo6TVRpbWUAMTU5MTk1ODg5N+lU2jwAAAATdEVYdFRodW1iOjpTaXplADEyMDY1QkJ7cVjXAAAAWXRFWHRUaHVtYjo6VVJJAGZpbGU6Ly8uL3VwbG9hZHMvNTYvTnZ2Vm9RNS8yNDE1L25vZGVqc19vcmlnaW5hbF93b3JkbWFya19sb2dvX2ljb25fMTQ2NDEyLnBuZxDiHfAAAAAASUVORK5CYII=;" vertex="1" parent="1">
          <mxGeometry x="560.3699999999999" y="352" width="102.27" height="102.27" as="geometry" />
        </mxCell>
        <mxCell id="QBQiVsUSkPuhTxbB2Ofl-22" value="" style="shape=image;verticalLabelPosition=bottom;labelBackgroundColor=default;verticalAlign=top;aspect=fixed;imageAspect=0;image=data:image/png,iVBORw0KGgoAAAANSUhEUgAAAQAAAAEACAYAAABccqhmAAAABGdBTUEAALGPC/xhBQAAACBjSFJNAAB6JgAAgIQAAPoAAACA6AAAdTAAAOpgAAA6mAAAF3CculE8AAAABmJLR0QA/wD/AP+gvaeTAAAACXBIWXMAADsOAAA7DgHMtqGDAAAAB3RJTUUH5AYMCjAVO5vu4gAAKGxJREFUeNrt3XmcnWV5MP7v/ZyZbCSETUUJIKCiKJiAiq2KFZyg1VesW3FPglattgJiAKv2Z19tIYFg7VttLRLABetecYMAVcEdSRBUwAUkCTtkISHJzJxz//64z2SBmTOTzEzODLm+n898spztOWfOcz33ct3XTQghhBBCCCGEEEIIIYQQQgghhBBCCCGEEEIIIYQQQgghhBBCCCGEEEIIIYQQQgghhBBCCCGEEEIIIYQQQgghhBBCCCGEEEIIIYQQQgghhBBCCCGEEEIIIYQQQgghhBBCCCGEEEIIIYQQQgghhBBCCCGEEEIIIYQQQgghhBBCCCGEEEIIIYQQQgghhBBCCCGEEEIIIYQQQgghhBBCCCMmtfsAwi7upIVQaTiAPBP7ogd3kH5HugMPgcWntftoH3UiAIT2mbsAeQrpJLwLB2IiMjbifizFZbgct6PX4vntPvJHjQgAoT3mLkSqaPw9PordWty7B3/EN+T0eTn9ltzrove3+12Me7V2H0DYRc3qQj4Mi5Rmf8adWIE6Jtjy/axhHzxP8lIp7yXl2zzj2NWOnM2yK9r9bsatCABh5/vbs+lJJCfi9UpL9CrMwyfwNfwKDTwWk5uPTNgTzycdo1atVaXfmdVVt3RJu9/VuFS1+wDCLmgTfvw4OEj5DtbxFVyn7h49jRsd9sTzZW/Ga3E+ViqtBM3HHIlPyc4gTzfv7Ha/q3Gpo90HEHZBGc+9F7qb/1NhNylR1bn4DD4H1pmz4CrSNVLjCNI8vAaPaT5uD5whp8PwdXMXrMKDWEdaJzcepFrjhP/p9qXXccnft/udjzkxCBh2vtcsYlovvBWfVvr7l0vpRNkqi/sZ3Ju3kDJD8Hw5z8extlzAstKu6EbvVj93KV2Ja/FL2S1qjdVyarjg9HZ/CmNCBIDQHnMXIB1MvhSHYQPeJXdcpOrmgjMe+Zi3LighoNfjZGfi7ZgyhFfrxRrcrIw1fFeZXtywq08pxiBgaI9ndtGdVuuwB/5CaQUcJDV+QLrPsn4G9a5fwi+X8Myu9eRrpHQP9lPGEDYqg4aN5r0rWy5wlRIo9scL8AocijscdfxdZnXlXXUQMVoAoX3mLECeIaUvKCcmfFH2bjzgwhZX5znn0FCpNfaW0yTJXng8eRqmKeMDT8Rz8LTm/z38+/4n/Bd5sTUT7jCth4t2rRZBBIDQPm86j8kb6O14MS5UruY9OEvyUVn3DjfRT1qIqibX95LNwsvxl0pQ2Lrl24Of4RzyZaSNu1K3IAJAaK+5C8iNSqrejbOUpvoqvNuUhy6xfjcuHGbG39wFlAHDJ+FVeAOeattAsBoXST5ut7W3WT/NrjBQGGMAob2WLWHW7IxfY288SwkCT9PTebXkHnt0cdsw+ujLlrBsScMzX3yfnvo1quoyySqlNbBn816TlO7Cn+ueeJeUbtsVEowiAIT2W7aEWV09khswEwcrc/17yukKe6RN/Q4Kbq/rr+CGK5k1e5VcXSPlHyjzCoc0/0yYgdmYIuVfOfLFGxzyen7zzXZ/SqMiugBhbHjrWdRqyM+TfVbJEtyIU+17zafc9TwW99Mkf+fHmFJn1YRO0kQ59brbRnvh84P05ecsgCmSV+B0PNOWc6IH3yR9WMdev9F7v0fj2EC0AMLYcP0VzOyiboVKr5LoMwkHWnfAFaQH+m0FHHE8mzqmytX7Se+THGuq5boff6dnPZ9llw/8msuWMOvFPay5kUnfV7oeh9qyEOkw/JnGhuV6G390ZFd+tC08igAQxo5lSzhqNindopx8T1O6AvdYfP7V5sx/5Mq/mV00cq+UDsfblDGEo01Y9wvynYN2HZZdwbKrmdV1P67E3Uo3ZPfmPR6PF6nSKin92qyu+oh0R8aICABhbHnu8fTkTVK6X5m6m4LpZh55qZTWPeLkW3YFR87OzfGDKTgaT0BFumzIJ+yyJRzV1aPDdRquV1oCM5q3TsMx6JYtM6ur59ESBCIAhLHl2subtQLci+fiKdhTSteRfuPJz+M339/2MUuXMLOrFzfg2cr4QbeywnDDkE/WpUs4YnZW23Cr3Hm1kpdwqDIuMFmpRzBJTr8wc/bIDEy2WSwHDmNPPVHL6/Cj5v9MJs9Gp6kDFA6qN6iqu3GRkvv/ezmv37KCeIgWv5/7eqnSzXi3kqDUt2pxN5wi5Q9KpjXzC8a1aAGEsef6JTxzNnTiBGUwcAq+gTX9rxO4gpkvJrlbyfm/WJVuUU/l+bbHTT8srYFZXeskVytThEcqyUQdOKr558/M6uoezy2BaAGEsSu7ATc1/3WgkqjD4i8O8ICKRnWPlP5OchWJi4cxdbd4PjmtktNH8G/KkmNKQDoZ7yNNGs8tgWgBhLFp5mwOue8hq6YciBcqrYH7dKTL/GlN/6v3ll3OssuzpUs2WLqkMSJZfMuWMHN2N+lnkinK1b/WPJ6jcL9G/qVZs/N4bAlEAAhj07IlPPEEsl7JCcog3EQN35A9uFNPtpKpuAk/V9KVZymt59I1SOn3lh5xk5c/g6XjK08gugBh7Crjd7/Cdc3/OUSZ59/5Shbgavx/+J+tbnk8zjLrhqPliree05bD21ERAMLYVWuQqzXKxiANZRT+L2Wdbel3r19PSnfjTFyz1S2HSvmjsv1UjR188vaIABDGrs+coXlCXaZUBYbjJAe15Xi+9BFSIudbcAb+sNWtx+IUTBxPg4IxBhDGtpIUtAZPV1J0p+M2Ezp+6vBjd/6mIEsvZ9Zseuor1Kr1yok/QUkWejr+5NBX/cqMJ4yLDUuiBRDGtp41SJtwidIHr+FNunsPkNq0mHXxfDprGV/AZ2ypQzgdH3DzVw+XxsepFS2AMLb96mqO7GLLIp2+BUL36+j5sZmzc1tG3svMQK/sN5KjcUDzlseQJkv5CjO7esZ6K2B8hKmwaytX03WkT+MBJQvvHXo7n0PiLR9v03FlpNuVUmb3b3XLa+X0arUJzDmrnZ/coCIAhLHvM6eVP3P+gbJvICUz8MNymqHWvYNPPEwXnF6CQHY5LrZl4cFuOFW95yljvSsQXYAwPvQ1ublN2UfgMUqRz/2kdI1ZXevaUr+vHFcdv1cyFvdt3rIvulXpKrO6RiYrcRSM7fAUwtZy5sGNN+BspSuQ8Fo5n6Kuo1nia+er6myc8gf8py0rB+GvNfKR27sgcWeKFkAYP5ZdwXNfSvIbrFeuuBPwWNLXpLS2Lfn4S6/kWX8Bt0merRQ1pVQVepB05VhdKxAtgDC+XDCfrEdO38Qdzf+dJKlt99r/kdQ7gVrjPnwK67a65eXkg9t6bC1EAAjjy9uao+op95X+gj+QV7f1uD53Mo2KUlfwx1vdcjBmy4l5Z7f1EPsTASCML/WERk0ZCOzbGfgnrnrsao02V7nvrajyGqVwSW/zfzvwSlVjj7HYCIgAEMahNF2p4U/JDrzCsfdw0TC3EBuuz56mGYSuVDYe7fNsOT17LG7DEQEgjDMJaT82Lwha2vwZS27FVVv9ezpercqdY60bEAEgjB/vPb9MBZb6fHs1//cyVX2VPEa+yiUfsAdfVlonff5SIz1dHlutgDHyqYUwBOseoLOqKbX/J+AB2dUaNS48rd1HV3xzcw3CH9u2FbA/XqvekcxZ2O6j3CwCQBg/GujN05WSXHCrnH435gbXepGsx+eUfIU+r1TrPbisIRgbIgCE8WYfW1be3aRKa9u2LHggn51fglVO/2vbKcFDcYJJibeOjaIhEQDCOJP3VxbbwG3qvZvUxlgAoKxgTI3VSiugr5x4Da+zMT9+rJx5Y+QwQhiibH9l/j/jLrWK88dI/39ri09DIvkert3qlll4WUkMan8rIAJAGF9S2kupyd9t21H2saeB5B58XpkZoAxevlWVHzcWxi4iAITx4VWL+vJo+rL/6rYdYHukOQuYsyB5y8JOJ/wbJy7aucd80fy+YmHfUjYu7fNs2cs1Kk5qb8GQCABhfNgNqUHZlouhrK5JSOlpavk0ez40zaSeQR8yKjoay/FFJWhRNhR5i9R4jHp7T8EIAGF8KKPqbDmJklbf37kLkPcmfxjvlTypLbMFi+eXNQJlfcDvt7rlaMnLqJj3Lzv/uJoiAITx4fOn9gWADc3/6cDUfu87ZwE5d5D+Dq9WCnW+SKNq04q8jMYfbLuj0ERlLGBvuX1lOSIAhPFmnXJGTcAej7j1DeeUb3VKL8S7lEBR4ZWqvE9bUnEXn665w8lXbKlhAEfLuYvESe1pBUQACOPN3djY/PsT5GSbnXgmNGiYhLl47FaPO4r8Qglv+ni7jv16fHurf0/GW2TTywrnnS8CQBhn0gpbugEHSpsHBZs3I+VDlHJhW5uCEzVM0dGGKsJlc9FufFYJYn2OkfLxcntmBCIAhPGjnNwrlYKg8FTy9H7u+CzbXv37HIs/Azec0a7j/5ktpc0p8xt/T+OAZkWhnSoCQBg/MnK+H79u/s/+sidtvv1tC9iQKbsHTdjqUXcrV9+9JG+W8kSL9tz5x3/BfHLqxvn441a3PFfyr+gyd8Ge5i5IO2uD0QgAYfxIiWy9LQVA9pK8QGowZ2EpFza5msJWQaGc+P+JG5v/fqmUyo5C//jFdrwJ0oSl+H+2lBCv4ZVKDYGv4h2YYd55lbnnjOrRRFnwMH4sXVJ25k0m4BVKUlCN9E1p88Dg7vhb7Nf891p8VOk2vBjT0En1PWvX9O70DTuWLWHmseR8s5T2x2G2nIeTlEpHs9FF4zE07nfk7NWjtblIBIAwvszqIlmDFynbg+0t5Z+Smkk2eR/Se2yZIlwpO0/lZhyn7NhzAPk68u8886Vcf/nOfQ9P7mJi2ijna6R0h5LPsKct24zXmsf5QtLLMENyl1mz7zOrK49kIIgAEMaXmcdT69kgV9PRhcmkSsrfJfWQDsE8W5YM/0rKn9NT3a1mmjIQOAXT5eq7qsbGnb5hx2+W9G0p9hCNX1B9k3Q1Vijn5O5KolClBLLn4nhMltziiBeu96yXs/SyYR9KBIAwviy7nGceD3cqpcEfjwNJv1c1bpTTTLxeOYHgalX6qpq65A6l5VBaAcmtOjuXesaLuL4dW4xfwbIrWbZkg2fO/qNc+77sG5If4l4liE1XVj/uiWMwU+pYjhVmdg17t6EIAGH8mdnFhMYajVRX+vVT8Sw5rVM24uiy5bv9bfX6ElXFxumrdWzqbj5mCmZo1JdI1eq2b9t1/RKuvzy7fskGR3XdqnKVkjq8VGkJzFASh56E2eRKSr82a/bG4XQJIgCE8WfZEo6YDb9TxgFmKk3l2XiecqJQMgb/S6putHg+zzoGblF2Fn429iU9pJF/aFZXw7I2tAL6s3QJ1y3Jjj72QRtqv1bl70jpd0pw21fpIhyjBIPfOvLYe8083o4EsQgAYXwqfehu8g2kw3CIkvc/cat7XY+FKJuGlsf0YJly8jwNT1ala6XqNkcc156uwECuvZIbljBzdrdNjRt0VFcp5+yhSvfgGXge1Ur8sQSx7QsCEQDC+PXM46h1rJLzT5Q+8oFKAKjjJnzIMfv9wq1rt5zYh3dR86BSpuvw5s9jpXyZlB4aM62ArS1bwo1XMKvrAfyv0vI5FI9TWgTHoS5XN5rV1b09QWAMVlMMYTuV2npTZUcrV8W1+JFyouRmHv4Wc89Srn35CHwSz8GHqBaSGxa3eYuxVuYsYFNiUj4MZ+A1SpdnAy7GP8n5Dh0dnP++QZ8uAkDYNZ10Fr2dVPWn4xN4quwtpCvV6nymDWsFtsfcBaS8u5zehPfiKUrZlO/iDL3dN+qcyAWtg1l0AcKuaekVPGc2PY17VenHOFxynOT7clrT9lmBwSxbwhEv2aR74rU6en+gjAk8GU/HUaqOparGnY54SctEpwgAYdd13eUc/QIaEx+Q8v8qA4PPkdNPzeraNOaDwPWXc8N3ObLrbsnlys6Ez1FaA0+V0w+lvKrV+4guQAiUJnU2VfJm9Gjkz0o2ufD0dh/ZFiedS0qVeu9k8mTSRDlPIU1R9hvrlPJpOLH5iAtV3itb64L5/T5lBIAQ+pRNOydI+eVIGulSKXe7cP4wn3gHvfUc6h10bpqKQ0hHKYOcByuLnfZWBgAr5VzOyoKi3ZvP0IN/ktNZ5N7+3kcEgBC2Nm8BUqecZ4PsKmzYqUFg7kKYLOcnSY7BS3GUcsJ3DuEZ6lijVCH+krL0eNMjZkNEAAjhkU46myp36E3PJiWbJvxMR0/dxTthenDOApgu+Wf8lbIZ6kAnfQ8eVE72u5s/y3EzrsPNatVqWd1n+t8+rWOnfrAhjAefOZ15C3olP8VkuTMPZR+SEVEuyZOUK/7jH3brRqUq8p/wC/wSvyYtx0Ny3iTbiLqLhtZiiQAQQn/KoFnGQzv1dRN60t068leU9QpbV+36Mj4u5+VYhd7hDlJGSbAQxpIL5tORKXsIXPuwWw9DN9W9ao1hn/xEAAhh7GnUqWq3kT+Ge7a65Sh8UvJcpiTzhl8vcGiDgPPOQq6oJpA6SHWN+iYpNcquJ2120gKoSBM1co3cq7OxSSNl54/xlM4Q+jNnIVlNld+Lj9h2G7Q/YJGUv6DeuVrnBs7/hx16mf4DQClJnGTTJYdgltL8eIKScrgJK5WRxu9Lbpf7WXQxmuYu1CwTewD5L3CkMjc6URkouQO/Ji8l/ZHaWnK2+LQdf81xaMW5oKYyWTZRGVGujG7rr56y+3LSM+PU7TjW85rHmu1mS0msYR9LzjY2ajbI6geesh3Hs6h5PKV+wEDjZQ3ZA5KN2/Neh2Te5unAUzBfqQ7UZwOuwHmka9CzI4uYHhkAysqqPWR/jb9WEg/20P9URLey7PLfJZ/H+oEyjkZUmSrZTfImvFtZGjmhn3v2KIMlv8IXJV+Wrd2pgaoNVp5HYkIjO0ApkHGUkjzyWKUqbl8gGA0V7knZiTm5udVJsbx5wlfsnbNnKIU9ntw81n1sKeyxo/oG8e5Rrpq3SK7DTY0eq6qaPKPFgrlmAHgcvq4sNW487C4J62Xvllwx4gGAvgzFiZIT8UHbljynTP0tlv2H9ZP/ZOoG2/P93jYAzFlAtqfK2XiLbYsrtLIeH5f9Mx4a1aSJsu3zFNI/KKugdhviIzfifMk/MHBq5HjWvIJ24tmyNykVcvbXf3AcTXen7MU5ubG/k2L5uSQ6JIfjtUoJrycrwWlUWyZYjd8qq+a+Wut1S6Mm79dPIGgGgCcoS4ufOMBzrpO9XvKtUQkAlC7uxCrZ0Dga/6is/986gDfwUzl9SMrfl1PDhUNrDWz5sOedWz6fyuvwVkM/+Skn4cmSN7jlgJJIMRrmnc2kdUhvsX0nP2Vu9STZX5F4Szu2iR49KxYh20f2IdlXlJ1xD7HzT/4+/U6cr1hElewtORPfUNa0P0tp3o72oHRNyaZ7Pv4vvlHv8K6cTG2e7GPTZ+azoTtLnT+V8lvwT0oXvE+FP5fyRTiJxsSh7iy05QPPdVLHbvhLO/al2Q3v8dTbDxq1LZhzYuPUJ+M9tu/k7zMZL9PIk1WPniTI5pd3H5yDMz0ygWRMWL6IzL6Zj+NDOED7slErPFUpGfaRlOy+8rx2f0ItLP4AF5yCfC+Ns8ivwoXKCsA+M7BQSqdLeZq5g1/kHhZx81SlKbajniF7hUZHc+ZgBM1Z0Ld4+VVKLbcd9STJ1EdLEvTy88hJTRkLeaOxktyVtv2EVyyiYmIqV/w3GL0xiO01Be/O2TtRjekgABecweIzeqX0c8nfKhWBLsBdSqtrOs6U0weopg7WEujo599TW9y/R+nv7zHA7TW8Wqp/Xq7uG9E3nlD3hOYbbtVUXK20Dgb6gk01Vk6SkfhYSkP7KXjzIO9ro1IR9yal+bhK0jsah4R1edstsIvsBc3ltoM19bOylddvlbJeazxyAG4oxzFV2Wqr1P0buLUxEe+QfS+XAeOxr4xhbTBvwfdJP5HzEXgTXq3Mhr2X3C2lfzF34caBZgge/oVJWjfJ1uNbyiKFgZrgRzWn5b5i3jlcMALTbm9bSE+DKr0ER7S454PN43uFgQNA39LJcW/lp8gbUEb6D2xx1/X4GC7CA/WaTVVD3n87psSGY/k5NHrUqk6vwF6D3H0Tvi77lOQGybrGZL1VrzzjPUN7vfv+mb1Xs/JxOiRTlAD5DqXlMWWAhx2UeUmDX91xLk8YvJze2FACwSZzz/6FnJdJ6fOkv1UCwalyvlPDp81d0OhvdmB7r4RJskR2IF4wwH2m4HVy+o7cGJk86nqmSnsohQ5ajU/8XMpXyemEQZ5xJ63sGF2NbiaupnsPh2r9u/wRPoXVozZS3UKqqJLdc8nVaCXjs1X2/pys3m8Hj3WfD2z+ay/WrljkWqXl85AyftRfCyThyMSkxpaNRsePkpDXY+6Cnys7IV+ljAd9WOU+jfRVcxc8Ildne0ddE+ku/Dctm48vIh85ItfZd5zb97dj8Gct7tnTPK57PUqu8INJDTbtpcPAXbI+v52erWln3ndOJiklrFu5W/apxjBO/v40g966xKdtO3r+cPtWZbZo/Fo8n+QhExoXK3k8P8UCVX61CROSk7ZNH96BAAD5UmXN8UD2kbxGyjXzhjnd1l0nmazs99ZqfOLXsu9se5yPbrmBXpXBB9R6HqjkNjd7KoPPLt0lWT4aL54ysjtp+fwTeRTMD10wn/v3J+Vf4W34HM7U3f1sjW2HUnZkMCzp6Lhdb/3rSgXSgbxMTv+hNL2Gp+FIyXEt7pHxNbXGSjkdNcIf5+ib+wlqkoekgTsn3ZkHMzUu+fA2b3xIX9iKURnyG1ndtn+wb3s0mq/Ryrg//8FX3lj+nLfwAclHNfJyHCNX15m7sLdvUHDHAkBvHb6qZAseMMD9Dsb/0dt7k3kLB61P3q85C8mpQ2r8tZKPPZDb8DWNavOw+HYr0yUHKc2mgZqBa+X8GSmtGdl04o3UHWWiNypX84e/iQp3sNsnlIHO7dfwaPlqD9eu9Slc8H5OOqdbrVqs3jhYanTY6lKw49NhDb9W+Q7eOcA9KrxKR8fFcr57O555i9JuOxQvH+Sel6pXN6sN++JxIE43cJ96pbJOe81wX6gfT1Gy9wbKwPwNzrdjAaBzrxprx34LIIyGUg6sV5kG3saOjwtVmwfd7m9xr5k4TtXgxH/dvuefs7BviuOvDJyHTVno8SW1xvC/3nnUm6CtX7317MQjbkuoBn8cHLS2x26PjrmPMJKGOzD8c2WzwoFMwuvU01STtnNmJWHewv2V+cxWzbYrJL8ckU+jJMaMm9OkqjjzJ3q0DsLwZzl5vrx5wVAIGE4XoN5JR89DuET2UgMnBh0jpeco85JDM2dhmePK6aVaDzQ+iEs0bLRbnYd2rY2OHj+Vf3keyjz/Ow38O3gMzsmVx8j+d/kia1LSq6ExpHBXyb0T1LunaXRs4uC/afc7DyNlxwPAxaf01VD/PvnneNEA99wTr5Fdbc6CniEtFU7I1V7kE7We4voxrpbw72ca6gqoAQ15SH1sSG/fvBDoSnwbr2tx92co8+C3JW6VrZH0DPH99nZ029Bxv/uwYsUiN+VSc/4+9O7fhuSiMDKGlxNf1enpfECVL1HSUQea532plD5JvnHQ53zreUpOjxcp+5wNZBMuobFm+1YutzCOTv4+DzbYvbI282FlReCxLe4+WVlINZzFVL14MJX59B/iWysW+UlnZe3GBgdGMBhXhjcGcP6ZVA1KcYVWJ/eB5BMctYa3LhzkiHoo6cQnar3kdxkup2LxiCW1j7sQ8LTTmr2lys0pe7tylV89ii/ZobTqjlDSav8bn+1p6KplnSvOHdZzh51s+NmhKXHr7SuUvICBRtAT/sq1u++nGtIY27MN3KWgVHb5ss7anW3PbxsDnnAa+59MrvxRcrKyKuyLyhLR+ii//HRl8dXnJPNTZdqYX1IbNht+ALjg/TzxALKv49YW93yGlLo08PYBagWUPnynkoyzd4vn+h2+qaduTO3e2mYzTmHSBhsemujbsnmyl+M0fAHXKwFhjbIoZpOSFdfqp8fQp0Ufiw/m7NQGncsjCIwLI7MuvuxLegu+iYHa4xPxOpWv6a3Wtni2w/CyQV7xfyR/GIUJu8GWQ495W62E23Drv/nlg7v75Z73m5SYltgnl7Xi0zBZGvT3X8mmKYUxD1XGZPZv8RlNwntS9iNcseS/6Hp7uz+R0MrIBIDF85m7oDTLy5rrxw1wzz9XVvRd9ohb5i1kwoRk06ZXGTi9mJKN92VZYxSq+z6qNko56O82/3Vj8+depcjGkK04pyw6SjWTJU9RMiVfp68+0yPtg5f3NFz11LVtS6oKQzRyX/iEKi3F5S3uNR2vldOE5l7sW+TMpk0HKiW/WvmelG8YpXydcX31Hw0zTmP/+cx4nw1KN+I0XD3Iww7srExO8WmOeSMXAHavUc8bcQlaNfGPl/LTt1m08+az6awoOf9PbfHYVbhETt2jtCPRuO8CjKacqVXuUHambaVTfI7jwsjVxvv4+/oG8X6Ea5Tqwv2ZgVeydpm5Z2WLz6Aj0dPYR2latjqmH+Bno/h5PKq6ACOt0U2ehu6du7B4xQIyVWeWOuqDrpfIbDMWEloY4eKYndi0luoSJSFloGW1r2T3z+B2J51TNkOUjlPqww9kg9K6WKcxaufpWG4B7LrznWW0Yb/eZF5vp8fpf2ozNf//uym5fOUijZGsKvRoNbIBYPEpfTv3LCEtNXAJr6fhJXL16XLym6pU/Gm1FdQv9K0nuGi09vfL1dg9/3ddGZK7lboP79B634NX5+xMySUrztM745T+ny4UI38pTZl6x934koGTUDrxWvIezYvu0UrNv4H04Ivq6b4RWPPf6uDHcgug7VIy3MXSg51801I/6eT7v48q6a46XKwEgFtaPMd+WCR7Z2bS5h1/ym82ab22JNNvalmrd52GMJ06Zo18ALjgdGp1sku1/kUdLeXn6a1qytV/zxb3/Y3k22rZKG/3PYSTf9cd264mkEsNwumD3LXRz6dUV8qTt/KEPMA6hf1Ood4rr+11Kf5G2Zl6IPvgYyl7v8q0Fec1z+xkX2UMaiCb8iNP9l6ti7BMxoyMu8by9mIDGJ3OdEYj36rsqjqQaXiNjsbROH6QZ/uanum3j9qWY1s8qHXlvGmSQzH8lYfjzIrzyu5xuSQDdQ1y99WJ7m1+W8kG3DnI46bjbTnZs79Mwv1PZfcOcvYDvF0ZFB7I7jhTw0ewl2SibI6SyDSQe1Oy6WH/t17rDNcKJ+Dx47Hg0ugEgAvnU0sNpXzWihb3PB7/oOzAOpDb8DUdawx1x9Nh+JPWv+zdcbpslkbVMejCpnEsv53rvsodZ6tWnmeS7HGp5kR8Uuvt4zJuaCTdjWYHMFfUd7MWS4fw0q9O2Xkpm7niXJNXLCjJSH1mnEpvLyrX5WSecpEZqKs5Ge+RfUJ2llIzodV3/reyDX1dgAZqJQBco3U34EWpfC7HrVhknxWLTL57gWrTB1n7T6P/uxqO0eu7lE/xRsl3lCZbf/bFS7T+pXxLrX6Txihf/RuJO/e4236rvoBnGriv+CLJV6XGlfi1uQvu11y/PAx1ZcB0uyqarDiXzISUvFFZnTdiAyQr8dg/0eg0QfYYJRX4KQbeWafP7/AdDfZvxuv9T2bFIjlxaS47T+/T4vETlGKzx0l+psPNWL1i0cNO8gapvN8/KasfB1o70qlkp2atv2f34aqstDTggFM311u4FHMNXJymprQC/kKpk/DHng7337uXTWiMws7Dl+L7I7HJy+gFgAvnM3dBj+yLklfr/xc02KDbPfhv9VrvKKT9buui9zcLnLhQNlNZUTfQDjIHKfXWS2X+kTnxanZgw8xUHnNC86fd1uLcHn7T3xcr8xN8VtnavdXJmJS+eqv++lZPO5SPqeX3LOO/5f5zTCb0uKW700JlV+M9WrzGHspUdqvp7JFwN74/Ek+0MxJfforv7eBjv4Vrd8IxFhfMJ1ul5Lv/B9YN8oi+zS4mjcDPWNktd0fdjQ8lLppAfniVoObVqlvZjvsSI7dLwXBnbnqUGat/kWyc8bA9AWecSncnuRzzB/W36enON2ItvdENAD36Bn/+Teu+dX9+r/SrNo361X9r5bXuwnyl6/JDZfls6N8GZf3HW2SfzNmmgRJwmkHgTpysbFa6ckivMDqysrvVh3L2npytnNHiuBPdsv9UdmH+nsFnNMaF0Q0An5uPTKP35/gAQ9726XZ8QK1x3RDvvz0Gv2Isnk/K69V6L5G8Rum3nq9UPVpl8N1lHu26cYdSBOaklL1+/uEul/TOGGRX3RmnkrkvlwDwKqVZfZMSSHamHlwsOS8l9+0/hOPuqOn97h8tSckblEBwQfPY1xr9witbG7EBsYd31XqUDSge8MhmRsI68tqhPPFmi0/npLOzjsaXdFd3KCOxz1fm/ScqQahvy6ZVuEb2Kbl2jVxlF25v1l9ao+zxPkX/O+zcbiiDdhdsXmx0r7kLvqLUINhHdggOURJO9m6+znDLETeUOgjPN3hfdau3SsoaubSubjB6X8K+Ofx7lVmZG/FLyR/2+5aHbnslX+gqVUeGotk96Fl+np9jacrOw9FKJajDlA1a9mx+roN92bPy3VnX/Hmw+bOx+ZwHDfC4Cfh72QOJxSsW2TTYoNq+J2/+66rli3wd306lEMrTlEVs+ysD249VprknGfmLbDKC3ZAtH24ZAKuUD36gg86ytZLu5qYdQ3fyv3LfBjprk+V8gOTJSrnqCcov8D7J72R/MqW+wcrJfOPk7XuNeQvJJkp5moG/OHXZaoZZT+CNC+lJybRcDTs56Prrex1++DuVrtJAA7M34jjc03fcK88jJamR7a4E09FKc825oZ4qG3s7bKwa8gHvHdkXWHkuKavqlSmJ3WSTmzsKt/xsU1LP2UOpBPXezT9Zr+R5OFfZoGYga7AgZ5/AusFaAgO541w6e6VNnTqV4+4w/AtD/7L1kof6SXPebrtsVtuYUpKK3q6MeQw5AISBrTiPxlqqaY7CeXhBi7s/hE/JPoZVg3VjHk1i+evYUWkdkKO6znaYcQrVbjR3jfobZd+EgVpIU/B3koWSfZefw4Nfafc72DkiALTb3IXkzkrJrmvVZHzQ8BOOdikzTtM32XhTyt6l9fTjBCXZ5/+lysFr/8TtH2/3Oxh9EQDaZe4/I5PzblLP65UFUa38Tkrro9e2fWa8vznzkCyXnYz/4hH5/n0qZS/Kz+TkyGU/Y/mjfJ+D+Db1mbsQaSL5MPIEo7tuPGEvJbX2hUrxlFYr7DbiJFXjC9ZP5YvvafenNS419yvYI2dvVGZyBvodV5lfpOQrOet+NG99Nm7XMY+41IDHyemzyuKk0e5zTzD0KcTLyN/VqOLkH4b9yqj5avz7QPdZ+u+srjiwR9ptAr07c3a/DSIAbKtvGnTP4T7RCPop/lFKq3b59KOdYNa7N/91l6gcFGMAY9cGfJX0Nql+vZyamZUhjJxoAYwtWRnt/6WSpvoN9Z7VpuzJp97V7mMLj0IRAB6p8bA/R/N1upUBvjVKTvkvcTXpWqpVcs4uivrWYfREANha8gA+rPW25CMhyzaS15BWYqWcH9DTs16tll18Zrs/iRBCCCGEEEIIIYQQQgghhBBCCCGEEEIIIYQQQgghhBBCCCGEEEIIIYQQQgghhBBCCCGEEEIIIYQQQgghhBBCCCGEEEIIIYQQQgghhBBCCCGEEEIIIYQQQgghhBBCCCGEEEIIIYQQQgghhBBCCCGEEEIIIYQQQgghhBBCCCGEEEIIIYQQQgghhBBCCCGEEEIIIYQQQgghhBBCCCGEEELYXv8/6qwJ5TbzhecAAAAldEVYdGRhdGU6Y3JlYXRlADIwMjAtMDYtMTJUMTA6NDg6MjErMDA6MDBLFV0IAAAAJXRFWHRkYXRlOm1vZGlmeQAyMDIwLTA2LTEyVDEwOjQ4OjIxKzAwOjAwOkjltAAAACB0RVh0c29mdHdhcmUAaHR0cHM6Ly9pbWFnZW1hZ2ljay5vcme8zx2dAAAAGHRFWHRUaHVtYjo6RG9jdW1lbnQ6OlBhZ2VzADGn/7svAAAAGHRFWHRUaHVtYjo6SW1hZ2U6OkhlaWdodAA1MTKPjVOBAAAAF3RFWHRUaHVtYjo6SW1hZ2U6OldpZHRoADUxMhx8A9wAAAAZdEVYdFRodW1iOjpNaW1ldHlwZQBpbWFnZS9wbmc/slZOAAAAF3RFWHRUaHVtYjo6TVRpbWUAMTU5MTk1ODkwMdA3rncAAAATdEVYdFRodW1iOjpTaXplADE2MjEzQkIDeg2qAAAAWHRFWHRUaHVtYjo6VVJJAGZpbGU6Ly8uL3VwbG9hZHMvNTYvTnZ2Vm9RNS8yNDE1L215c3FsX29yaWdpbmFsX3dvcmRtYXJrX2xvZ29faWNvbl8xNDY0MTcucG5nuOtvDgAAAABJRU5ErkJggg==;" vertex="1" parent="1">
          <mxGeometry x="564.5" y="555" width="109" height="109" as="geometry" />
        </mxCell>
        <mxCell id="QBQiVsUSkPuhTxbB2Ofl-23" value="" style="shape=image;verticalLabelPosition=bottom;labelBackgroundColor=default;verticalAlign=top;aspect=fixed;imageAspect=0;image=data:image/png,iVBORw0KGgoAAAANSUhEUgAAAQAAAAEACAMAAABrrFhUAAAABGdBTUEAALGPC/xhBQAAAAFzUkdCAK7OHOkAAAAgY0hSTQAAeiYAAICEAAD6AAAAgOgAAHUwAADqYAAAOpgAABdwnLpRPAAAAutQTFRFAAAAAAAAAAAAAAAAAAAAAAAAAAAAAAAAAAAAAAAAAAAAAAAAAAAAAAAAAAAAAAAAAAAAAAAAAAAAAAAAAAAAAAAAAAAAAAAAAAAAAAAAAAAAAAAAAAAAAAAAAAAAAAAAAAAAAAAAAAAAAAAAAAAAAAAAAAAAAAAAAAAAAAAAAAAAAAAAAAAAAAAAAAAAAAAAAAAAAAAAAAAAAAAAAAAAAAAAAAAAAAAAAAAAAAAAAAAAAAAAAAAAAAAAAAAAAAAAAAAAAAAAAAAAAAAAAAAAAAAAAAAAAAAAAAAAAAAAAAAAAAAAAAAAAAAAAAAAAAAAAAAAAAAAAAAAAAAAAAAAAAAAAAAAAAAAAAAAAAAAAAAAAAAAAAAAAAAAAAAAAAAAAAAAAAAAAAAAAAAAAAAAAAAAAAAAAAAAAAAAAAAAAAAAAAAAAAAAAAAAAAAAAAAAAAAAAAAAAAAAAAAAAAAAAAAAAAAAAAAAAAAAAAAAAAAAAAAAAAAAAAAAAAAAAAAAAAAAAAAAAAAAAAAAAAAAAAAAAAAAAAAAAAAAAAAAAAAAAAAAAAAAAAAAAAAAAAAAAAAAAAAAAAAAAAAAAAAAAAAAAAAAAAAAAAAAAAAAAAAAAAAAAAAAAAAAAAAAAAAAAAAAAAAAAAAAAAAAAAAAAAAAAAAAAAAAAAAAAAAAAAAAAAAAAAAAAAAAAAAAAAAAAAAAAAAAAAAAAAAAAAAAAAAAAAAAAAAAAAAAAAAAAAAAAAAAAAAAAAAAAAAAAAAAAAAAAAAAAAAAAAAAAAAAAAAAAAAAAAAAAAAAAAAAAAAAAAAAAAAAAAAAAAAAAAAAAAAAAAAAAAAAAAAAAAAAAAAAAAAAAAAAAAAAAAAAAAAAAAAAAAAAAAAAAAAAAAAAAAAAAAAAAAAAAAAAAAAAAAAAAAAAAAAAAAAAAAAAAAAAAAAAAAAAAAAAAAAAAAAAAAAAAAAAAAAAAAAAAAAAAAAAAAAAAAAA////qpFlMQAAAPd0Uk5TAAI/dnloGifW/Y8FSfLAEEzzwxFLL+GjCFmfoZABBgMOTWVjOgQxYk8wVBNz+/xCKNH1gyTO94aoTvS6SAqsUb4PCXw0Rujgfb/kbDaMC6aiGamzpBbxkgwH9nXjcckjq7L+kfph7jjrr+LsMxiTxorPSlYSHBsVgg3X70RFZDlQLWZaXB3mcN8mfyLK+IelrdSYheeciekseIG22hQfLj1BF5S0zeW4lnfSUtPq2G6wVx7QlTvcIN01Kp0hzMu8X8TFaWeLrp4leljZUylb23SZe/mIvaDeyMc+jV0r8LWEu0NAsZqXb7eqa2BHgO1qpzxywlVebW/lBz8AAAABYktHRPg7Y2dmAAAACXBIWXMAATr2AAE69gE6sVc6AAAJDElEQVR42u2deVwUZRjHBwRsozVWDk0cQAhTcBfERAPJQIQC2zJCWUSzBVYOqbQgkLKCsFI0lcIuTCkpLS1D05QuTTvolEq7sLL7vvffBjo+wPsO7BzvPLPwfP99Pu/O8/vtzHvO+w7HIQiCIAiCIAiCIAiCIAiCIAiCIAiCIAiCIAiCIAiCIAiCIAiCIAiiGA/PYV4E3j7QaWnH8NOcJIbTfaHz0owzjBQDnCPOhM5LM/xMNANG+kPnhQagAWgAGoAGoAFoABqABqABaAAagAagAQwJGOoGBAbRDBg1GjovzfA9a0wwwdhA6LQ0hPcNIQiFTgpBZBE2Lpwg4uxIIcKPP4cMTeiq6vmJlEhUNLQUeUwymQksQTFCJHayhQzFTRGe9XOnUiLx0yKhtchh9HRai+YcJoTOS6BFEsM4bsYgWhdIOp9qgJcQmhlHi1xw5uDqCUo3IBkNUMmAlBRo8bAGRM4ak6qDzhOcAbPTnOkXwi+pgxngc5FQxDwiBvomgDLAY5alu1BGZtLQNGBO+r+lTBfD9iCBDLBe8n8x86Vzh6ABE3r0JQ2XQVaFMAaEZfUsaLg8e6gZEDCvV0nL/JyhZYAtuE/R3AVgrSGIAYF5fcum+bmPASqMBhcaiMKLrgAyIGWx9ndAzpVkYfvYEBgDQvNpWgoKhZCngxaaLozhlhTRIsVWF68ZW0IpXTobxgBu6UUZeX0pCS4TImFXBRGRjKu7Jsus16QThTKWLXf1ktfm0vzLSoYxgL+unKDin/8yqYIMRfNdkRQfMnK9h6uXrKQ+dQlRMAZoj7WYaoAzqwo6M43wWUE3oPoGhhdNuZGcyA/37Hq/PSeADKy8qatfwgdSZv9v7pr65W8pJAI113aP6spryTK31vXKJbWIboAzn2FvqNBBmf1f5SdEbjNSIrd7CpE7KLP/lrjVQpZr6imRtesihdv7zgLy5wrW96rf6M2rwIZyZvpDN1Kv2CC6LrBAKDSO2tr3vy5QkU6L3BXbMxlvi4gBpnHMDIi8m3rFRtV7guV5tMime3omc69TjHVuYUCydAPSehlwn6gB9zNrB3RlQIOoAQ9U8DlNmx/cMjvA74ytqec2h6lWK+rKAPE7wPTQQw9vC9rkmGcyGauLWjY88mjmljJVtmLpyoDtTtexOHY8+lgZP7gMqBFrBUSIq99+hVILdGUAfdm9PyyPZypceNWVARN3SjXA6YwvTh08BmRPlm6A07nLb9AYYBslxwD7pEFjAPeEwSmdTYqeAX0ZsDRNhgFPujrh5gYG5GQ5JRO3W4l+nRnAhRdINuACZWvIOjPgqVap+k3KbgDo4XBfA7jtEjuDzjsV1QCc2AhsmGDNHlrAUiOUiammhRYncdzeUlrkyhyxNv7pzX3S2TdVmv79zyjUzx2Yvoxg6sE2IbK0mIxs29P1zkJy47OtROjhrULEet9zRKT1+RlCJPSFF8nIIW9iRHdYUi1gekn5cMh6PUn3Dg8+hww02brL2JrIUFV3KiHRZCS5O+LhT0b8+w7rrXuDpRhgPqKLNwrVIumO8KM77RL0W1520/fQSWz+r/i9WpwurREsOCjv/RFb3dItOsJz+WuZDZeOLDFJ+e+7iM+X9f+HbjnYXuTQEdXGeDkjAGfpq2Fy9Pt6Z8i5mv7Y8bq8KcHdpcqvrQOqN74hr7Ipr4dOXQ1yEyfIbf5q10Inr5zq+9+U3/pdA529QuymyaffoOCFEZGhj1tgX+t4K6tyuY+iHWi+B6FlyGDF+qOXXb6x8e3aveVWxasA70CrkU5crS0pxabSWqDHHuUJac2iZnW0d8PnK09IY+zHVNTvjq1A3kRVDVgNrUcywTZVDZgErUcqxgBV9XMvSZ1zhCZR5X3X7tYV7liprn6RY2/1y7I65Zp7Ifoupj6xz1JZP9eWpzwrDXlA5qhfnObHoTVJ4l2XX7R3leT3oDVJIWi82vq5kPehRUlhPoPDV6ZAi5JA3hz19btVT2gsi9N33KgjcFzdYdC/xLZA63KZdUy2iUSfgNblKu0HWOjnQoKVp6YJFi/lK/9UZkErc5EPWG0TiopTnpwGJNQy0s/FusdoYDGzPTLu0Rle9SEr/Rz/EbQ4FzCsY3gC4ccd0PIG5sQ+dvq5T/T/hkQn0+3iVSeh9Q2E/Sq2BzEfgxY4EPWMTw2J6YRW2D+lM9nq57L1/ZqM5VPW36bjG6E19svJMsb6Oe5GPT8Du5TtgnOJpkPQKsVxMBsD9KRSeaKM6FityalJSzZBCxXBHqzNGdTWo9BKRfiMZRe4J7Xx0FKpTGUyDUqj+QNorTT2f66Vfo5bqMPlgVWvM5oFpNG2A1ougWOl6iuh/eEla5MCQ4yTtP068xpZW/XZYbpX628R3WaG1tyThAs13/82dyS06B4YjwGcI77bpDxxlXAshPgWl1U3i2RpNTDHpo5vh1b+D09HQZ2dfDhXefbKqT+lYf+nN1U6eAjMX3wCJV9g+DZo/cYjgMfHCwSsgtV/PAJ4+7tHJmRbaH7kJrDH/z9S3pV+bItaFE1jP/87MP5fAg2MLYcCgA5N70P2KJBxYVoDu5NyJVIWrP09kPvFVm0Hv/2SvVHjbSSW1nB9fYAwuXKeclUuY9+/ug288u/D6Igg5cJclN+SH6jp1Jdr8KdGaFIV2lu+mqOPup+g7gj7szUMQfmpOpUvYAtIZLtaUrCh8kEdVf0Umry3sesWznv+8GboDwgOCF/39bNMWsSOXfNnuMd3V3mfwm8cUk90GgBz3rcRbW705eUwz4snSz7gWfy/L1n/3T3uduJb5NwJe1qNyu8DQ2frO98fAP5upmwPfvjxZImCKUNL9Yrpb8eocwA+EHzO8KgpT7b/JLlhKOg8njj/Z88KiKl+1U2wVpxdOO2XRXmOeBeeCEPcT7cf+qUh4tQ+9b7/oAtGR6/59bXfGsecPNHestNhzO0w/+eGwWJem9BZelfQht+Pfjnlu8eWbL5uMPzvIvhWRZetGf/h8j/+rPnrtwVeXl4LFmZ6R9x68+fPxJY3+ye5UUOHIAiCIAiCIAiCIAiCIAiCIAiCIAiCIAiCIAiCIAiCIAiCIAiCIG7J3z+UPABDvrDVAAAAJXRFWHRkYXRlOmNyZWF0ZQAyMDIwLTAzLTE3VDA4OjM3OjA1KzAwOjAwppBS3wAAACV0RVh0ZGF0ZTptb2RpZnkAMjAyMC0wMy0xN1QwODozNzowNSswMDowMNfN6mMAAABGdEVYdHNvZnR3YXJlAEltYWdlTWFnaWNrIDYuNy44LTkgMjAxOS0wMi0wMSBRMTYgaHR0cDovL3d3dy5pbWFnZW1hZ2ljay5vcmdBe+LIAAAAGHRFWHRUaHVtYjo6RG9jdW1lbnQ6OlBhZ2VzADGn/7svAAAAGHRFWHRUaHVtYjo6SW1hZ2U6OmhlaWdodAA1MTLA0FBRAAAAF3RFWHRUaHVtYjo6SW1hZ2U6OldpZHRoADUxMhx8A9wAAAAZdEVYdFRodW1iOjpNaW1ldHlwZQBpbWFnZS9wbmc/slZOAAAAF3RFWHRUaHVtYjo6TVRpbWUAMTU4NDQzNDIyNQ6jkfIAAAATdEVYdFRodW1iOjpTaXplADcuMThLQkLvZbTUAAAAQnRFWHRUaHVtYjo6VVJJAGZpbGU6Ly8uL3VwbG9hZHMvNTYvY1JtaXdPTi8yMjQ4L2RvY2tlcl9pY29uXzEzODY2OS5wbmctJxH+AAAAAElFTkSuQmCC;" vertex="1" parent="1">
          <mxGeometry x="475" y="47" width="58.18" height="58.18" as="geometry" />
        </mxCell>
        <mxCell id="QBQiVsUSkPuhTxbB2Ofl-26" value="" style="rounded=1;whiteSpace=wrap;html=1;fontSize=14;fontColor=#000000;strokeWidth=2;fillColor=none;dashed=1;dashPattern=1 1;" vertex="1" parent="1">
          <mxGeometry x="440" y="308" width="343" height="174" as="geometry" />
        </mxCell>
        <mxCell id="QBQiVsUSkPuhTxbB2Ofl-27" value="" style="shape=image;verticalLabelPosition=bottom;labelBackgroundColor=default;verticalAlign=top;aspect=fixed;imageAspect=0;image=data:image/png,iVBORw0KGgoAAAANSUhEUgAAAQAAAAEACAMAAABrrFhUAAAABGdBTUEAALGPC/xhBQAAAAFzUkdCAK7OHOkAAAAgY0hSTQAAeiYAAICEAAD6AAAAgOgAAHUwAADqYAAAOpgAABdwnLpRPAAAAutQTFRFAAAAAAAAAAAAAAAAAAAAAAAAAAAAAAAAAAAAAAAAAAAAAAAAAAAAAAAAAAAAAAAAAAAAAAAAAAAAAAAAAAAAAAAAAAAAAAAAAAAAAAAAAAAAAAAAAAAAAAAAAAAAAAAAAAAAAAAAAAAAAAAAAAAAAAAAAAAAAAAAAAAAAAAAAAAAAAAAAAAAAAAAAAAAAAAAAAAAAAAAAAAAAAAAAAAAAAAAAAAAAAAAAAAAAAAAAAAAAAAAAAAAAAAAAAAAAAAAAAAAAAAAAAAAAAAAAAAAAAAAAAAAAAAAAAAAAAAAAAAAAAAAAAAAAAAAAAAAAAAAAAAAAAAAAAAAAAAAAAAAAAAAAAAAAAAAAAAAAAAAAAAAAAAAAAAAAAAAAAAAAAAAAAAAAAAAAAAAAAAAAAAAAAAAAAAAAAAAAAAAAAAAAAAAAAAAAAAAAAAAAAAAAAAAAAAAAAAAAAAAAAAAAAAAAAAAAAAAAAAAAAAAAAAAAAAAAAAAAAAAAAAAAAAAAAAAAAAAAAAAAAAAAAAAAAAAAAAAAAAAAAAAAAAAAAAAAAAAAAAAAAAAAAAAAAAAAAAAAAAAAAAAAAAAAAAAAAAAAAAAAAAAAAAAAAAAAAAAAAAAAAAAAAAAAAAAAAAAAAAAAAAAAAAAAAAAAAAAAAAAAAAAAAAAAAAAAAAAAAAAAAAAAAAAAAAAAAAAAAAAAAAAAAAAAAAAAAAAAAAAAAAAAAAAAAAAAAAAAAAAAAAAAAAAAAAAAAAAAAAAAAAAAAAAAAAAAAAAAAAAAAAAAAAAAAAAAAAAAAAAAAAAAAAAAAAAAAAAAAAAAAAAAAAAAAAAAAAAAAAAAAAAAAAAAAAAAAAAAAAAAAAAAAAAAAAAAAAAAAAAAAAAAAAAAAAAAAAAAAAAAAAAAAAAAAAAAAAAAAAAAAAAAAAAAAAAAAAAAAAAAAAAAAAAAAAAAAAAAAAAAAAAAAAAAAAAAAAAAAAAAAAAAAAAAAAA////qpFlMQAAAPd0Uk5TAAI/dnloGifW/Y8FSfLAEEzzwxFLL+GjCFmfoZABBgMOTWVjOgQxYk8wVBNz+/xCKNH1gyTO94aoTvS6SAqsUb4PCXw0Rujgfb/kbDaMC6aiGamzpBbxkgwH9nXjcckjq7L+kfph7jjrr+LsMxiTxorPSlYSHBsVgg3X70RFZDlQLWZaXB3mcN8mfyLK+IelrdSYheeciekseIG22hQfLj1BF5S0zeW4lnfSUtPq2G6wVx7QlTvcIN01Kp0hzMu8X8TFaWeLrp4leljZUylb23SZe/mIvaDeyMc+jV0r8LWEu0NAsZqXb7eqa2BHgO1qpzxywlVebW/lBz8AAAABYktHRPg7Y2dmAAAACXBIWXMAATr2AAE69gE6sVc6AAAJDElEQVR42u2deVwUZRjHBwRsozVWDk0cQAhTcBfERAPJQIQC2zJCWUSzBVYOqbQgkLKCsFI0lcIuTCkpLS1D05QuTTvolEq7sLL7vvffBjo+wPsO7BzvPLPwfP99Pu/O8/vtzHvO+w7HIQiCIAiCIAiCIAiCIAiCIAiCIAiCIAiCIAiCIAiCIAiCIAiCIAiiGA/PYV4E3j7QaWnH8NOcJIbTfaHz0owzjBQDnCPOhM5LM/xMNANG+kPnhQagAWgAGoAGoAFoABqABqABaAAagAagAQwJGOoGBAbRDBg1GjovzfA9a0wwwdhA6LQ0hPcNIQiFTgpBZBE2Lpwg4uxIIcKPP4cMTeiq6vmJlEhUNLQUeUwymQksQTFCJHayhQzFTRGe9XOnUiLx0yKhtchh9HRai+YcJoTOS6BFEsM4bsYgWhdIOp9qgJcQmhlHi1xw5uDqCUo3IBkNUMmAlBRo8bAGRM4ak6qDzhOcAbPTnOkXwi+pgxngc5FQxDwiBvomgDLAY5alu1BGZtLQNGBO+r+lTBfD9iCBDLBe8n8x86Vzh6ABE3r0JQ2XQVaFMAaEZfUsaLg8e6gZEDCvV0nL/JyhZYAtuE/R3AVgrSGIAYF5fcum+bmPASqMBhcaiMKLrgAyIGWx9ndAzpVkYfvYEBgDQvNpWgoKhZCngxaaLozhlhTRIsVWF68ZW0IpXTobxgBu6UUZeX0pCS4TImFXBRGRjKu7Jsus16QThTKWLXf1ktfm0vzLSoYxgL+unKDin/8yqYIMRfNdkRQfMnK9h6uXrKQ+dQlRMAZoj7WYaoAzqwo6M43wWUE3oPoGhhdNuZGcyA/37Hq/PSeADKy8qatfwgdSZv9v7pr65W8pJAI113aP6spryTK31vXKJbWIboAzn2FvqNBBmf1f5SdEbjNSIrd7CpE7KLP/lrjVQpZr6imRtesihdv7zgLy5wrW96rf6M2rwIZyZvpDN1Kv2CC6LrBAKDSO2tr3vy5QkU6L3BXbMxlvi4gBpnHMDIi8m3rFRtV7guV5tMime3omc69TjHVuYUCydAPSehlwn6gB9zNrB3RlQIOoAQ9U8DlNmx/cMjvA74ytqec2h6lWK+rKAPE7wPTQQw9vC9rkmGcyGauLWjY88mjmljJVtmLpyoDtTtexOHY8+lgZP7gMqBFrBUSIq99+hVILdGUAfdm9PyyPZypceNWVARN3SjXA6YwvTh08BmRPlm6A07nLb9AYYBslxwD7pEFjAPeEwSmdTYqeAX0ZsDRNhgFPujrh5gYG5GQ5JRO3W4l+nRnAhRdINuACZWvIOjPgqVap+k3KbgDo4XBfA7jtEjuDzjsV1QCc2AhsmGDNHlrAUiOUiammhRYncdzeUlrkyhyxNv7pzX3S2TdVmv79zyjUzx2Yvoxg6sE2IbK0mIxs29P1zkJy47OtROjhrULEet9zRKT1+RlCJPSFF8nIIW9iRHdYUi1gekn5cMh6PUn3Dg8+hww02brL2JrIUFV3KiHRZCS5O+LhT0b8+w7rrXuDpRhgPqKLNwrVIumO8KM77RL0W1520/fQSWz+r/i9WpwurREsOCjv/RFb3dItOsJz+WuZDZeOLDFJ+e+7iM+X9f+HbjnYXuTQEdXGeDkjAGfpq2Fy9Pt6Z8i5mv7Y8bq8KcHdpcqvrQOqN74hr7Ipr4dOXQ1yEyfIbf5q10Inr5zq+9+U3/pdA529QuymyaffoOCFEZGhj1tgX+t4K6tyuY+iHWi+B6FlyGDF+qOXXb6x8e3aveVWxasA70CrkU5crS0pxabSWqDHHuUJac2iZnW0d8PnK09IY+zHVNTvjq1A3kRVDVgNrUcywTZVDZgErUcqxgBV9XMvSZ1zhCZR5X3X7tYV7liprn6RY2/1y7I65Zp7Ifoupj6xz1JZP9eWpzwrDXlA5qhfnObHoTVJ4l2XX7R3leT3oDVJIWi82vq5kPehRUlhPoPDV6ZAi5JA3hz19btVT2gsi9N33KgjcFzdYdC/xLZA63KZdUy2iUSfgNblKu0HWOjnQoKVp6YJFi/lK/9UZkErc5EPWG0TiopTnpwGJNQy0s/FusdoYDGzPTLu0Rle9SEr/Rz/EbQ4FzCsY3gC4ccd0PIG5sQ+dvq5T/T/hkQn0+3iVSeh9Q2E/Sq2BzEfgxY4EPWMTw2J6YRW2D+lM9nq57L1/ZqM5VPW36bjG6E19svJMsb6Oe5GPT8Du5TtgnOJpkPQKsVxMBsD9KRSeaKM6FityalJSzZBCxXBHqzNGdTWo9BKRfiMZRe4J7Xx0FKpTGUyDUqj+QNorTT2f66Vfo5bqMPlgVWvM5oFpNG2A1ougWOl6iuh/eEla5MCQ4yTtP068xpZW/XZYbpX628R3WaG1tyThAs13/82dyS06B4YjwGcI77bpDxxlXAshPgWl1U3i2RpNTDHpo5vh1b+D09HQZ2dfDhXefbKqT+lYf+nN1U6eAjMX3wCJV9g+DZo/cYjgMfHCwSsgtV/PAJ4+7tHJmRbaH7kJrDH/z9S3pV+bItaFE1jP/87MP5fAg2MLYcCgA5N70P2KJBxYVoDu5NyJVIWrP09kPvFVm0Hv/2SvVHjbSSW1nB9fYAwuXKeclUuY9+/ug288u/D6Igg5cJclN+SH6jp1Jdr8KdGaFIV2lu+mqOPup+g7gj7szUMQfmpOpUvYAtIZLtaUrCh8kEdVf0Umry3sesWznv+8GboDwgOCF/39bNMWsSOXfNnuMd3V3mfwm8cUk90GgBz3rcRbW705eUwz4snSz7gWfy/L1n/3T3uduJb5NwJe1qNyu8DQ2frO98fAP5upmwPfvjxZImCKUNL9Yrpb8eocwA+EHzO8KgpT7b/JLlhKOg8njj/Z88KiKl+1U2wVpxdOO2XRXmOeBeeCEPcT7cf+qUh4tQ+9b7/oAtGR6/59bXfGsecPNHestNhzO0w/+eGwWJem9BZelfQht+Pfjnlu8eWbL5uMPzvIvhWRZetGf/h8j/+rPnrtwVeXl4LFmZ6R9x68+fPxJY3+ye5UUOHIAiCIAiCIAiCIAiCIAiCIAiCIAiCIAiCIAiCIAiCIAiCIAiCIG7J3z+UPABDvrDVAAAAJXRFWHRkYXRlOmNyZWF0ZQAyMDIwLTAzLTE3VDA4OjM3OjA1KzAwOjAwppBS3wAAACV0RVh0ZGF0ZTptb2RpZnkAMjAyMC0wMy0xN1QwODozNzowNSswMDowMNfN6mMAAABGdEVYdHNvZnR3YXJlAEltYWdlTWFnaWNrIDYuNy44LTkgMjAxOS0wMi0wMSBRMTYgaHR0cDovL3d3dy5pbWFnZW1hZ2ljay5vcmdBe+LIAAAAGHRFWHRUaHVtYjo6RG9jdW1lbnQ6OlBhZ2VzADGn/7svAAAAGHRFWHRUaHVtYjo6SW1hZ2U6OmhlaWdodAA1MTLA0FBRAAAAF3RFWHRUaHVtYjo6SW1hZ2U6OldpZHRoADUxMhx8A9wAAAAZdEVYdFRodW1iOjpNaW1ldHlwZQBpbWFnZS9wbmc/slZOAAAAF3RFWHRUaHVtYjo6TVRpbWUAMTU4NDQzNDIyNQ6jkfIAAAATdEVYdFRodW1iOjpTaXplADcuMThLQkLvZbTUAAAAQnRFWHRUaHVtYjo6VVJJAGZpbGU6Ly8uL3VwbG9hZHMvNTYvY1JtaXdPTi8yMjQ4L2RvY2tlcl9pY29uXzEzODY2OS5wbmctJxH+AAAAAElFTkSuQmCC;" vertex="1" parent="1">
          <mxGeometry x="473" y="278" width="58.18" height="58.18" as="geometry" />
        </mxCell>
        <mxCell id="QBQiVsUSkPuhTxbB2Ofl-28" value="" style="rounded=1;whiteSpace=wrap;html=1;fontSize=14;fontColor=#000000;strokeWidth=2;fillColor=none;dashed=1;dashPattern=1 1;" vertex="1" parent="1">
          <mxGeometry x="441" y="509" width="343" height="174" as="geometry" />
        </mxCell>
        <mxCell id="QBQiVsUSkPuhTxbB2Ofl-29" value="" style="shape=image;verticalLabelPosition=bottom;labelBackgroundColor=default;verticalAlign=top;aspect=fixed;imageAspect=0;image=data:image/png,iVBORw0KGgoAAAANSUhEUgAAAQAAAAEACAMAAABrrFhUAAAABGdBTUEAALGPC/xhBQAAAAFzUkdCAK7OHOkAAAAgY0hSTQAAeiYAAICEAAD6AAAAgOgAAHUwAADqYAAAOpgAABdwnLpRPAAAAutQTFRFAAAAAAAAAAAAAAAAAAAAAAAAAAAAAAAAAAAAAAAAAAAAAAAAAAAAAAAAAAAAAAAAAAAAAAAAAAAAAAAAAAAAAAAAAAAAAAAAAAAAAAAAAAAAAAAAAAAAAAAAAAAAAAAAAAAAAAAAAAAAAAAAAAAAAAAAAAAAAAAAAAAAAAAAAAAAAAAAAAAAAAAAAAAAAAAAAAAAAAAAAAAAAAAAAAAAAAAAAAAAAAAAAAAAAAAAAAAAAAAAAAAAAAAAAAAAAAAAAAAAAAAAAAAAAAAAAAAAAAAAAAAAAAAAAAAAAAAAAAAAAAAAAAAAAAAAAAAAAAAAAAAAAAAAAAAAAAAAAAAAAAAAAAAAAAAAAAAAAAAAAAAAAAAAAAAAAAAAAAAAAAAAAAAAAAAAAAAAAAAAAAAAAAAAAAAAAAAAAAAAAAAAAAAAAAAAAAAAAAAAAAAAAAAAAAAAAAAAAAAAAAAAAAAAAAAAAAAAAAAAAAAAAAAAAAAAAAAAAAAAAAAAAAAAAAAAAAAAAAAAAAAAAAAAAAAAAAAAAAAAAAAAAAAAAAAAAAAAAAAAAAAAAAAAAAAAAAAAAAAAAAAAAAAAAAAAAAAAAAAAAAAAAAAAAAAAAAAAAAAAAAAAAAAAAAAAAAAAAAAAAAAAAAAAAAAAAAAAAAAAAAAAAAAAAAAAAAAAAAAAAAAAAAAAAAAAAAAAAAAAAAAAAAAAAAAAAAAAAAAAAAAAAAAAAAAAAAAAAAAAAAAAAAAAAAAAAAAAAAAAAAAAAAAAAAAAAAAAAAAAAAAAAAAAAAAAAAAAAAAAAAAAAAAAAAAAAAAAAAAAAAAAAAAAAAAAAAAAAAAAAAAAAAAAAAAAAAAAAAAAAAAAAAAAAAAAAAAAAAAAAAAAAAAAAAAAAAAAAAAAAAAAAAAAAAAAAAAAAAAAAAAAAAAAAAAAAAAAAAAAAAAAAAAAAAAAAAAAAAAAAAAAAAAAAAAAAAAAAAAAAAAAAAAAAAAA////qpFlMQAAAPd0Uk5TAAI/dnloGifW/Y8FSfLAEEzzwxFLL+GjCFmfoZABBgMOTWVjOgQxYk8wVBNz+/xCKNH1gyTO94aoTvS6SAqsUb4PCXw0Rujgfb/kbDaMC6aiGamzpBbxkgwH9nXjcckjq7L+kfph7jjrr+LsMxiTxorPSlYSHBsVgg3X70RFZDlQLWZaXB3mcN8mfyLK+IelrdSYheeciekseIG22hQfLj1BF5S0zeW4lnfSUtPq2G6wVx7QlTvcIN01Kp0hzMu8X8TFaWeLrp4leljZUylb23SZe/mIvaDeyMc+jV0r8LWEu0NAsZqXb7eqa2BHgO1qpzxywlVebW/lBz8AAAABYktHRPg7Y2dmAAAACXBIWXMAATr2AAE69gE6sVc6AAAJDElEQVR42u2deVwUZRjHBwRsozVWDk0cQAhTcBfERAPJQIQC2zJCWUSzBVYOqbQgkLKCsFI0lcIuTCkpLS1D05QuTTvolEq7sLL7vvffBjo+wPsO7BzvPLPwfP99Pu/O8/vtzHvO+w7HIQiCIAiCIAiCIAiCIAiCIAiCIAiCIAiCIAiCIAiCIAiCIAiCIAiiGA/PYV4E3j7QaWnH8NOcJIbTfaHz0owzjBQDnCPOhM5LM/xMNANG+kPnhQagAWgAGoAGoAFoABqABqABaAAagAagAQwJGOoGBAbRDBg1GjovzfA9a0wwwdhA6LQ0hPcNIQiFTgpBZBE2Lpwg4uxIIcKPP4cMTeiq6vmJlEhUNLQUeUwymQksQTFCJHayhQzFTRGe9XOnUiLx0yKhtchh9HRai+YcJoTOS6BFEsM4bsYgWhdIOp9qgJcQmhlHi1xw5uDqCUo3IBkNUMmAlBRo8bAGRM4ak6qDzhOcAbPTnOkXwi+pgxngc5FQxDwiBvomgDLAY5alu1BGZtLQNGBO+r+lTBfD9iCBDLBe8n8x86Vzh6ABE3r0JQ2XQVaFMAaEZfUsaLg8e6gZEDCvV0nL/JyhZYAtuE/R3AVgrSGIAYF5fcum+bmPASqMBhcaiMKLrgAyIGWx9ndAzpVkYfvYEBgDQvNpWgoKhZCngxaaLozhlhTRIsVWF68ZW0IpXTobxgBu6UUZeX0pCS4TImFXBRGRjKu7Jsus16QThTKWLXf1ktfm0vzLSoYxgL+unKDin/8yqYIMRfNdkRQfMnK9h6uXrKQ+dQlRMAZoj7WYaoAzqwo6M43wWUE3oPoGhhdNuZGcyA/37Hq/PSeADKy8qatfwgdSZv9v7pr65W8pJAI113aP6spryTK31vXKJbWIboAzn2FvqNBBmf1f5SdEbjNSIrd7CpE7KLP/lrjVQpZr6imRtesihdv7zgLy5wrW96rf6M2rwIZyZvpDN1Kv2CC6LrBAKDSO2tr3vy5QkU6L3BXbMxlvi4gBpnHMDIi8m3rFRtV7guV5tMime3omc69TjHVuYUCydAPSehlwn6gB9zNrB3RlQIOoAQ9U8DlNmx/cMjvA74ytqec2h6lWK+rKAPE7wPTQQw9vC9rkmGcyGauLWjY88mjmljJVtmLpyoDtTtexOHY8+lgZP7gMqBFrBUSIq99+hVILdGUAfdm9PyyPZypceNWVARN3SjXA6YwvTh08BmRPlm6A07nLb9AYYBslxwD7pEFjAPeEwSmdTYqeAX0ZsDRNhgFPujrh5gYG5GQ5JRO3W4l+nRnAhRdINuACZWvIOjPgqVap+k3KbgDo4XBfA7jtEjuDzjsV1QCc2AhsmGDNHlrAUiOUiammhRYncdzeUlrkyhyxNv7pzX3S2TdVmv79zyjUzx2Yvoxg6sE2IbK0mIxs29P1zkJy47OtROjhrULEet9zRKT1+RlCJPSFF8nIIW9iRHdYUi1gekn5cMh6PUn3Dg8+hww02brL2JrIUFV3KiHRZCS5O+LhT0b8+w7rrXuDpRhgPqKLNwrVIumO8KM77RL0W1520/fQSWz+r/i9WpwurREsOCjv/RFb3dItOsJz+WuZDZeOLDFJ+e+7iM+X9f+HbjnYXuTQEdXGeDkjAGfpq2Fy9Pt6Z8i5mv7Y8bq8KcHdpcqvrQOqN74hr7Ipr4dOXQ1yEyfIbf5q10Inr5zq+9+U3/pdA529QuymyaffoOCFEZGhj1tgX+t4K6tyuY+iHWi+B6FlyGDF+qOXXb6x8e3aveVWxasA70CrkU5crS0pxabSWqDHHuUJac2iZnW0d8PnK09IY+zHVNTvjq1A3kRVDVgNrUcywTZVDZgErUcqxgBV9XMvSZ1zhCZR5X3X7tYV7liprn6RY2/1y7I65Zp7Ifoupj6xz1JZP9eWpzwrDXlA5qhfnObHoTVJ4l2XX7R3leT3oDVJIWi82vq5kPehRUlhPoPDV6ZAi5JA3hz19btVT2gsi9N33KgjcFzdYdC/xLZA63KZdUy2iUSfgNblKu0HWOjnQoKVp6YJFi/lK/9UZkErc5EPWG0TiopTnpwGJNQy0s/FusdoYDGzPTLu0Rle9SEr/Rz/EbQ4FzCsY3gC4ccd0PIG5sQ+dvq5T/T/hkQn0+3iVSeh9Q2E/Sq2BzEfgxY4EPWMTw2J6YRW2D+lM9nq57L1/ZqM5VPW36bjG6E19svJMsb6Oe5GPT8Du5TtgnOJpkPQKsVxMBsD9KRSeaKM6FityalJSzZBCxXBHqzNGdTWo9BKRfiMZRe4J7Xx0FKpTGUyDUqj+QNorTT2f66Vfo5bqMPlgVWvM5oFpNG2A1ougWOl6iuh/eEla5MCQ4yTtP068xpZW/XZYbpX628R3WaG1tyThAs13/82dyS06B4YjwGcI77bpDxxlXAshPgWl1U3i2RpNTDHpo5vh1b+D09HQZ2dfDhXefbKqT+lYf+nN1U6eAjMX3wCJV9g+DZo/cYjgMfHCwSsgtV/PAJ4+7tHJmRbaH7kJrDH/z9S3pV+bItaFE1jP/87MP5fAg2MLYcCgA5N70P2KJBxYVoDu5NyJVIWrP09kPvFVm0Hv/2SvVHjbSSW1nB9fYAwuXKeclUuY9+/ug288u/D6Igg5cJclN+SH6jp1Jdr8KdGaFIV2lu+mqOPup+g7gj7szUMQfmpOpUvYAtIZLtaUrCh8kEdVf0Umry3sesWznv+8GboDwgOCF/39bNMWsSOXfNnuMd3V3mfwm8cUk90GgBz3rcRbW705eUwz4snSz7gWfy/L1n/3T3uduJb5NwJe1qNyu8DQ2frO98fAP5upmwPfvjxZImCKUNL9Yrpb8eocwA+EHzO8KgpT7b/JLlhKOg8njj/Z88KiKl+1U2wVpxdOO2XRXmOeBeeCEPcT7cf+qUh4tQ+9b7/oAtGR6/59bXfGsecPNHestNhzO0w/+eGwWJem9BZelfQht+Pfjnlu8eWbL5uMPzvIvhWRZetGf/h8j/+rPnrtwVeXl4LFmZ6R9x68+fPxJY3+ye5UUOHIAiCIAiCIAiCIAiCIAiCIAiCIAiCIAiCIAiCIAiCIAiCIAiCIG7J3z+UPABDvrDVAAAAJXRFWHRkYXRlOmNyZWF0ZQAyMDIwLTAzLTE3VDA4OjM3OjA1KzAwOjAwppBS3wAAACV0RVh0ZGF0ZTptb2RpZnkAMjAyMC0wMy0xN1QwODozNzowNSswMDowMNfN6mMAAABGdEVYdHNvZnR3YXJlAEltYWdlTWFnaWNrIDYuNy44LTkgMjAxOS0wMi0wMSBRMTYgaHR0cDovL3d3dy5pbWFnZW1hZ2ljay5vcmdBe+LIAAAAGHRFWHRUaHVtYjo6RG9jdW1lbnQ6OlBhZ2VzADGn/7svAAAAGHRFWHRUaHVtYjo6SW1hZ2U6OmhlaWdodAA1MTLA0FBRAAAAF3RFWHRUaHVtYjo6SW1hZ2U6OldpZHRoADUxMhx8A9wAAAAZdEVYdFRodW1iOjpNaW1ldHlwZQBpbWFnZS9wbmc/slZOAAAAF3RFWHRUaHVtYjo6TVRpbWUAMTU4NDQzNDIyNQ6jkfIAAAATdEVYdFRodW1iOjpTaXplADcuMThLQkLvZbTUAAAAQnRFWHRUaHVtYjo6VVJJAGZpbGU6Ly8uL3VwbG9hZHMvNTYvY1JtaXdPTi8yMjQ4L2RvY2tlcl9pY29uXzEzODY2OS5wbmctJxH+AAAAAElFTkSuQmCC;" vertex="1" parent="1">
          <mxGeometry x="475" y="479" width="58.18" height="58.18" as="geometry" />
        </mxCell>
        <mxCell id="QBQiVsUSkPuhTxbB2Ofl-30" value="&lt;b&gt;Frontend Container&lt;/b&gt;" style="text;html=1;strokeColor=none;fillColor=default;align=center;verticalAlign=middle;whiteSpace=wrap;rounded=0;dashed=1;dashPattern=1 1;fontSize=14;fontColor=#000000;" vertex="1" parent="1">
          <mxGeometry x="533.18" y="64.99999999999997" width="145" height="30" as="geometry" />
        </mxCell>
        <mxCell id="QBQiVsUSkPuhTxbB2Ofl-31" value="&lt;b&gt;API Container&lt;/b&gt;" style="text;html=1;strokeColor=none;fillColor=default;align=center;verticalAlign=middle;whiteSpace=wrap;rounded=0;dashed=1;dashPattern=1 1;fontSize=14;fontColor=#000000;" vertex="1" parent="1">
          <mxGeometry x="528.5" y="293.5" width="108.5" height="30" as="geometry" />
        </mxCell>
        <mxCell id="QBQiVsUSkPuhTxbB2Ofl-32" value="&lt;b&gt;DB Container&lt;/b&gt;" style="text;html=1;strokeColor=none;fillColor=default;align=center;verticalAlign=middle;whiteSpace=wrap;rounded=0;dashed=1;dashPattern=1 1;fontSize=14;fontColor=#000000;" vertex="1" parent="1">
          <mxGeometry x="531.18" y="493.09" width="98.82" height="30" as="geometry" />
        </mxCell>
        <mxCell id="QBQiVsUSkPuhTxbB2Ofl-34" value="" style="shape=image;verticalLabelPosition=bottom;labelBackgroundColor=default;verticalAlign=top;aspect=fixed;imageAspect=0;image=data:image/png,iVBORw0KGgoAAAANSUhEUgAAADAAAAAwCAYAAABXAvmHAAAAAXNSR0IArs4c6QAAAnFJREFUaEPtl41NHDEQhR8VBCpIqACoAFJBoIKQCkIHgQ6gg6QCQgVABZAKgA6SCkBfZEuj1d16bM8BJ3mk02pvx5735scz3tCay8aa49cg8NYRHBEYEej0wEihTgd2L19FBHYlfZf0SdJBQngj6VHShaT7btRmg0gCm5J+SDopADxNRP5GEIkk8FvSFycodI+curNqUQQOJV0aS7eS8DSpg5BKvO8bHQhApEuiCJAOHxKSX5KOl6D6Kelr+saarS70UsgsRNHeJSBPknhflt/UCUX8Menv9RZ1RARs+lxJ4n1ObK10p1EEAXKb0wc5S7k+R6BWf+VFXBsBCjsX87uIAA3rwRTmdqEG0KUWEHRpcM0SkUIYB0QuzLkz3uY/BQ/5LokiwDl/bZBw0pDrf9J/O+mdEyrLZ9MnmklEEQCAPeNLgJiJSiNHaY//3yMJsB+g8HxualMQ/9L3cxc6h1I0AUyS13Ri0iWnDCnFjyh1Fe2U0yoIOPwWpzIIxPmybaeoCJD3dFd7C8u3sYwsj9Y8qQeO2O566CFAgTIaM0q0NiSIQIgRvOmqWUuAEQDQHJetoJflCgQ4Xplo3dfNGgKAZurMc4wFwljAmEBKAITnND0gzI/I8SRyefywewE+35uLheElsKjLAhqPZeBFYwsUcs+gb0zJYPNbaVMPgemcw303Ay/tX/MdEkSZuck9L3kI2AnSc+OqAb1It8qeh4C9sHfP7w529n5BHWFzqXgIPJvVHn0HxqKK26YHkHuzIiy/gttmLQE/hDjNWYyDQJyj2+rUE4FXwNhuYhBo913MyhGBGD+27zIi0O67mJVrH4EXKzJqMc3MzRkAAAAASUVORK5CYII=;" vertex="1" parent="1">
          <mxGeometry x="48" y="237" width="71" height="71" as="geometry" />
        </mxCell>
        <mxCell id="QBQiVsUSkPuhTxbB2Ofl-35" value="" style="endArrow=classic;startArrow=classic;html=1;rounded=0;fontSize=14;fontColor=#000000;strokeWidth=2;exitX=1.008;exitY=0.608;exitDx=0;exitDy=0;exitPerimeter=0;entryX=0;entryY=0.5;entryDx=0;entryDy=0;" edge="1" parent="1" source="QBQiVsUSkPuhTxbB2Ofl-34" target="QBQiVsUSkPuhTxbB2Ofl-1">
          <mxGeometry width="50" height="50" relative="1" as="geometry">
            <mxPoint x="385" y="492" as="sourcePoint" />
            <mxPoint x="435" y="442" as="targetPoint" />
          </mxGeometry>
        </mxCell>
        <mxCell id="QBQiVsUSkPuhTxbB2Ofl-36" value="Request" style="text;html=1;strokeColor=none;fillColor=none;align=center;verticalAlign=middle;whiteSpace=wrap;rounded=0;dashed=1;dashPattern=1 1;labelBackgroundColor=default;fontSize=14;fontColor=#000000;" vertex="1" parent="1">
          <mxGeometry x="141" y="242" width="60" height="30" as="geometry" />
        </mxCell>
        <mxCell id="QBQiVsUSkPuhTxbB2Ofl-37" value="Response" style="text;html=1;strokeColor=none;fillColor=none;align=center;verticalAlign=middle;whiteSpace=wrap;rounded=0;dashed=1;dashPattern=1 1;labelBackgroundColor=default;fontSize=14;fontColor=#000000;" vertex="1" parent="1">
          <mxGeometry x="141" y="290" width="60" height="30" as="geometry" />
        </mxCell>
      </root>
    </mxGraphModel>
  </diagram>
</mxfile>
